<svg width="49" height="38" viewBox="0 0 49 38" fill="none" xmlns="http://www.w3.org/2000/svg">
<g opacity="0.5">
<path d="M34.6291 32.2037L33.8997 31.8277C34.295 31.6464 34.6903 31.465 35.0857 31.2836L35.8917 31.6527C35.4198 31.8409 35.0244 32.0223 34.6291 32.2037ZM36.8132 30.9363L36.0071 30.5671C36.2789 30.3477 36.6272 30.1215 36.852 29.8573L37.6876 30.175C37.4333 30.4907 37.1615 30.7101 36.8132 30.9363ZM38.4558 29.472L37.5436 29.161C37.7683 28.8969 37.9165 28.6394 38.0942 28.3305L38.9595 28.5967C38.8583 28.8989 38.6336 29.1631 38.4558 29.472ZM39.3865 27.7281L38.4916 27.5134C38.5927 27.2112 38.6939 26.909 38.7184 26.6135L39.6133 26.8282C39.5418 27.0789 39.4876 27.4259 39.3865 27.7281ZM39.6225 25.8007L38.6979 25.6375C38.6755 25.2973 38.7 25.0018 38.6009 24.6683L39.4784 24.7868C39.5775 25.1203 39.6 25.4605 39.6225 25.8007ZM39.2577 23.7795L38.3802 23.6611C38.2811 23.3276 38.1054 23.0008 37.8827 22.6292L38.7898 22.6962C39.0126 23.0677 39.1116 23.4012 39.2577 23.7795ZM38.1687 21.6264L37.3085 21.6042C37.2442 21.4632 37.1502 21.3736 37.0092 21.2394C36.8509 21.0088 36.6159 20.785 36.4576 20.5545L37.2707 20.532C37.4291 20.7625 37.664 20.9863 37.8224 21.2168C38.0104 21.3958 38.0747 21.5369 38.1687 21.6264ZM36.3431 19.4891L35.577 19.5564C35.483 19.4668 35.389 19.3773 35.295 19.2878C35.013 19.0193 34.7781 18.7955 34.4195 18.5336L35.1387 18.4216C35.4207 18.6901 35.7792 18.9519 36.0612 19.2205C36.2022 19.3548 36.2492 19.3995 36.3431 19.4891ZM33.2324 17.5624C32.8269 17.2558 32.2977 16.9112 31.8921 16.6046L32.5643 16.4478C33.0935 16.7924 33.546 17.1438 33.9516 17.4503L33.2324 17.5624ZM30.275 15.6223C29.7928 15.3225 29.234 15.0293 28.6752 14.7362L29.1767 14.4966C29.7355 14.7897 30.3413 15.1276 30.8235 15.4274L30.275 15.6223ZM26.9987 13.8568C26.4399 13.5637 25.8045 13.2773 25.2161 13.0357L25.6707 12.7513C26.3061 13.0377 26.9415 13.3241 27.5003 13.6172L26.9987 13.8568ZM23.4038 12.2661C22.8154 12.0244 22.1503 11.7895 21.4853 11.5546L21.7693 11.1875C22.4343 11.4224 23.0994 11.6573 23.8114 11.9369L23.4038 12.2661ZM19.5075 10.9462C18.8895 10.7561 18.1948 10.5727 17.5001 10.3892L17.5839 9.99079C18.2785 10.1742 18.9732 10.3576 19.7149 10.5858L19.5075 10.9462ZM15.4631 9.88377C14.8154 9.74512 14.0911 9.61321 13.4434 9.47456L13.4036 9.03808C14.1279 9.16999 14.8522 9.30191 15.5468 9.48532L15.4631 9.88377ZM11.2705 9.0788C10.5932 8.99164 9.86894 8.85972 9.19163 8.77256L9.07517 8.34281C9.75247 8.42997 10.4768 8.56189 11.1541 8.64904L11.2705 9.0788ZM7.20672 8.55584C6.52941 8.46868 5.89909 8.42628 5.14517 8.34585L4.90509 7.87807C5.5824 7.96523 6.28933 8.0009 6.96663 8.08806L7.20672 8.55584ZM3.16025 8.12913C2.52994 8.08673 1.77602 8.0063 1.14571 7.9639L0.905626 7.49612C1.53594 7.53852 2.28987 7.61895 2.92018 7.66135L3.16025 8.12913Z" fill="white"/>
<path d="M34.7249 31.8317L34.7493 31.4172L29.2099 31.3113L29.8296 29.1327L28.7445 29.0813L28.027 31.7291L34.7249 31.8317Z" fill="white"/>
</g>
</svg>
