<svg width="32" height="32" viewBox="0 0 32 32" fill="none" xmlns="http://www.w3.org/2000/svg">
<path d="M27.6693 8H21.3296C21.7499 7.442 22.0026 6.75066 22.0026 6C22.0026 4.162 20.5073 2.66666 18.6693 2.66666C17.5783 2.66666 16.6113 3.196 16.0026 4.00866C15.3943 3.196 14.4269 2.66666 13.3359 2.66666C11.4979 2.66666 10.0026 4.162 10.0026 6C10.0026 6.75066 10.2553 7.442 10.6756 8H4.33594C3.23294 8 2.33594 8.897 2.33594 10V12.6667C2.33594 13.5357 2.8936 14.2747 3.66927 14.55V27.3333C3.66927 28.4363 4.56627 29.3333 5.66927 29.3333H26.3359C27.4389 29.3333 28.3359 28.4363 28.3359 27.3333V14.55C29.1116 14.2747 29.6693 13.5357 29.6693 12.6667V10C29.6693 8.897 28.7723 8 27.6693 8ZM14.0026 13.3333V9.33333H18.0026V13.3333H14.0026ZM18.0026 14.6667V28H14.0026V14.6667H18.0026ZM18.6693 4C19.7723 4 20.6693 4.897 20.6693 6C20.6693 7.103 19.7723 8 18.6693 8H16.6693V6C16.6693 4.897 17.5663 4 18.6693 4ZM11.3359 6C11.3359 4.897 12.2329 4 13.3359 4C14.4389 4 15.3359 4.897 15.3359 6V8H13.3359C12.2329 8 11.3359 7.103 11.3359 6ZM3.66927 10C3.66927 9.63233 3.96827 9.33333 4.33594 9.33333H12.6693V13.3333H4.33594C3.96827 13.3333 3.66927 13.0343 3.66927 12.6667V10ZM5.0026 27.3333V14.6667H12.6693V28H5.66927C5.3016 28 5.0026 27.701 5.0026 27.3333ZM26.3359 28H19.3359V14.6667H27.0026V27.3333C27.0026 27.701 26.7036 28 26.3359 28ZM28.3359 12.6667C28.3359 13.0343 28.0369 13.3333 27.6693 13.3333H19.3359V9.33333H27.6693C28.0369 9.33333 28.3359 9.63233 28.3359 10V12.6667Z" fill="white"/>
</svg>
