<svg width="69" height="32" viewBox="0 0 69 32" fill="none" xmlns="http://www.w3.org/2000/svg">
<g opacity="0.5">
<path d="M63.0238 17.2212L62.2899 17.4102C61.7195 17.1154 61.1491 16.8207 60.5787 16.526L61.2736 16.2941C61.883 16.6317 62.4534 16.9265 63.0238 17.2212ZM59.2058 15.4605L58.5109 15.6924C57.8807 15.4426 57.2114 15.1497 56.4822 14.9018L57.0391 14.6289C57.9062 14.9178 58.5365 15.1677 59.2058 15.4605ZM55.0495 13.8812L54.5317 14.197C53.8025 13.949 53.1125 13.744 52.2844 13.498L52.7033 13.1841C53.4922 13.3872 54.2214 13.6351 55.0495 13.8812ZM50.3961 12.5299L50.1153 12.8848C49.3263 12.6817 48.5373 12.4786 47.7874 12.3184L48.0683 11.9635C48.7192 12.1256 49.6071 12.3268 50.3961 12.5299ZM45.4827 11.4458L45.3399 11.8417C44.491 11.6834 43.7412 11.5232 42.9314 11.4079L42.9753 11.0139C43.785 11.1292 44.6339 11.2875 45.4827 11.4458ZM40.507 10.6249L40.4631 11.019C39.6534 10.9036 38.8827 10.8312 38.0132 10.7607L37.9191 10.3257C38.7886 10.3962 39.5983 10.5115 40.507 10.6249ZM35.4093 10.1123L35.6023 10.5454C35.2664 10.5082 35.0686 10.5121 34.7718 10.5178C34.2381 10.4845 33.7435 10.4941 33.2098 10.4608L32.9178 10.0296C33.4515 10.0629 33.9461 10.0533 34.4798 10.0867C34.8755 10.079 35.2114 10.1161 35.4093 10.1123ZM30.5644 9.98792L30.9553 10.4172C30.7574 10.421 30.5596 10.4249 30.3617 10.4287C29.7682 10.4402 29.2735 10.4498 28.7191 10.5043L28.2293 10.0769C28.8228 10.0654 29.3773 10.011 29.9708 9.99944C30.2676 9.99368 30.3665 9.99176 30.5644 9.98792ZM26.6209 10.6324C25.9676 10.6887 25.2543 10.79 24.6009 10.8463L24.0122 10.4209C24.7254 10.3197 25.4777 10.2614 26.1311 10.205L26.6209 10.6324ZM22.5993 11.191C21.985 11.2903 21.4098 11.4325 20.8346 11.5747L20.0871 11.196C20.6623 11.0538 21.3365 10.9097 21.9507 10.8104L22.5993 11.191ZM19.109 12.0014C18.5338 12.1436 17.9977 12.3287 17.5605 12.512L16.7141 12.1352C17.2502 11.9501 17.7863 11.7649 18.3615 11.6227L19.109 12.0014ZM16.15 13.0636C15.7128 13.2468 15.3147 13.4729 14.9166 13.6991L13.9114 13.3691C14.3095 13.143 14.7076 12.9168 15.2046 12.6887L16.15 13.0636ZM13.9592 14.4166C13.66 14.6409 13.3999 14.908 13.1398 15.1752L12.1139 14.933C12.374 14.6658 12.6341 14.3987 12.9931 14.1296L13.9592 14.4166ZM12.4585 15.9747C12.2973 16.24 12.1753 16.5481 12.0141 16.8134L10.9283 16.616C11.0504 16.3079 11.1725 15.9997 11.4326 15.7325L12.4585 15.9747ZM11.6478 17.7379C11.6247 18.0441 11.5026 18.3523 11.4795 18.6585L10.4328 18.5041C10.4559 18.1979 10.578 17.8897 10.6012 17.5835L11.6478 17.7379ZM11.5089 19.5753C11.4858 19.8816 11.5615 20.1859 11.5775 20.5351L10.471 20.4255C10.4941 20.1193 10.3793 19.772 10.4024 19.4658L11.5089 19.5753ZM11.6069 21.4519C11.6827 21.7562 11.6986 22.1054 11.7744 22.4097L10.6679 22.3002C10.5921 21.9958 10.5762 21.6466 10.5004 21.3423L11.6069 21.4519Z" fill="white"/>
<path d="M66.4497 14.1808L65.4116 14.1242L64.3528 15.8867L58.9671 15.4319L58.6827 15.7735L65.2332 16.3148L66.4497 14.1808Z" fill="white"/>
</g>
</svg>
