<svg width="90" height="28" viewBox="0 0 90 28" fill="none" xmlns="http://www.w3.org/2000/svg">
<path fill-rule="evenodd" clip-rule="evenodd" d="M3.71855 0.690918H14.0902C14.7118 0.690918 15.3063 1.15433 15.2198 1.70396L14.2956 7.63133H14.2902V7.63672C14.2902 7.64211 14.2902 7.65289 14.2902 7.65828L14.2794 7.71216C14.2362 7.87921 14.074 8.00314 13.874 8.00314H3.9077C3.69695 8.00314 3.51856 7.86304 3.49696 7.67444L2.58897 1.70396C2.50791 1.15433 3.09703 0.690918 3.71855 0.690918ZM1.46479 12.1846C3.66449 13.6934 6.24797 14.4909 8.91247 14.4909C11.5067 14.4909 14.047 13.7581 16.1926 12.3032C17.5222 11.4033 18.1708 12.966 17.2844 13.5318C14.755 15.1375 11.9283 16.1236 8.91247 16.1236C5.89665 16.1236 3.10783 15.0944 0.556808 13.5425C0.30816 13.3863 0.140625 13.1276 0.140625 12.8259C0.140625 12.1092 0.821614 11.7428 1.46479 12.1846ZM7.96127 18.9957C8.42606 18.7856 9.42592 18.7748 9.89072 18.9849C10.2204 17.8641 11.2581 17.0828 12.4472 17.0828C13.9172 17.0828 15.1117 18.2737 15.1117 19.7393C15.1117 21.205 13.9172 22.3959 12.4472 22.3959C10.9771 22.3959 9.78264 21.205 9.78264 19.7393C9.78264 19.7178 9.78264 19.6908 9.78264 19.6693C9.48538 19.3999 8.37201 19.4268 8.06394 19.6801C8.06394 19.7016 8.06394 19.7178 8.06394 19.7393C8.06394 21.205 6.8695 22.3959 5.3994 22.3959C3.92935 22.3959 2.7349 21.205 2.7349 19.7393C2.7349 18.2737 3.92935 17.0828 5.3994 17.0828C6.59384 17.0774 7.63696 17.8695 7.96127 18.9957ZM12.4418 17.6971C11.3176 17.6971 10.4042 18.6078 10.4042 19.7286C10.4042 20.8494 11.3176 21.76 12.4418 21.76C13.566 21.76 14.4794 20.8494 14.4794 19.7286C14.4848 18.6078 13.5714 17.6971 12.4418 17.6971ZM5.4048 17.6971C4.28062 17.6971 3.36723 18.6078 3.36723 19.7286C3.36723 20.8494 4.28062 21.76 5.4048 21.76C6.52898 21.76 7.44241 20.8494 7.44241 19.7286C7.44241 18.6078 6.52898 17.6971 5.4048 17.6971ZM1.67559 24.7614C1.80527 25.6074 2.14578 26.2972 2.77812 26.7983C4.56168 28.2047 7.37755 27.7413 8.92872 26.1463C10.4744 27.7305 13.2903 28.1939 15.0685 26.7875C15.7062 26.2864 16.0413 25.5967 16.171 24.7507C15.1225 25.5428 14.274 25.9793 12.7498 25.3703C11.1717 24.7399 10.442 22.4336 8.92327 24.4112C7.45322 22.4282 6.66411 24.7561 5.10214 25.3811C3.57263 25.9846 2.71865 25.5536 1.67559 24.7614ZM14.0254 9.35566L14.02 9.37183C14.0146 9.40416 14.0037 9.43649 13.9875 9.46882L14.0037 9.47421L13.6146 11.9906C13.4254 13.2031 9.79885 13.521 8.77739 13.521C7.79909 13.521 4.32928 13.1707 4.15094 11.9906L3.75096 9.3395C3.75096 9.32872 3.75096 9.31794 3.75096 9.31255C3.75096 9.10779 3.93475 8.94075 4.16715 8.94075H13.6146C13.8416 8.94075 14.0308 9.10779 14.0308 9.31255C14.0308 9.32872 14.0308 9.34488 14.0254 9.35566Z" fill="#8EA652"/>
<path fill-rule="evenodd" clip-rule="evenodd" d="M74.0131 6.40839L74.0346 4.3823H76.4941L76.4671 6.40839H74.0131ZM74.0346 17.5249L74.0131 7.53998H76.4671L76.4941 17.5249H74.0346ZM51.373 6.40839L51.3945 4.3823H53.8535L53.8265 6.40839H51.373ZM46.9896 15.224C47.2706 14.96 47.5137 14.5612 47.6542 14.0978C47.7947 13.6344 47.8652 13.1063 47.8652 12.5082C47.8652 11.9155 47.8002 11.3874 47.6597 10.9347C47.5192 10.4767 47.3192 10.0618 47.0166 9.76544C46.6815 9.46368 46.2764 9.29125 45.8763 9.29125C44.444 9.29125 44.1735 10.606 44.1735 11.2419V13.462C44.1735 15.6281 45.5413 15.682 45.8223 15.682C46.2329 15.6713 46.7085 15.488 46.9896 15.224ZM64.5872 15.7359C64.7547 15.6713 64.9222 15.5743 65.0738 15.4396C65.2303 15.3102 65.3548 15.127 65.4574 14.9115C65.5549 14.6905 65.6089 14.4265 65.6144 14.1086V12.7722C65.2848 12.7668 64.9657 12.7938 64.6577 12.8477C64.3496 12.8962 64.0631 12.9878 63.8145 13.1171C63.5605 13.2518 63.3604 13.435 63.2144 13.6613C63.0633 13.8984 62.9874 14.0978 62.9823 14.4588C62.9874 14.7714 63.0418 15.03 63.1444 15.2294C63.2414 15.4288 63.3874 15.5743 63.555 15.6713C63.7225 15.7683 63.9115 15.8167 64.1116 15.8114C64.2631 15.8275 64.4196 15.7952 64.5872 15.7359ZM65.7279 16.6466L65.6954 16.6735C65.4413 17.0723 64.7442 17.7081 63.3929 17.7081C62.8578 17.7027 62.4037 17.5626 62.0146 17.2986C61.6311 17.0292 61.3335 16.6681 61.1229 16.2209C60.9174 15.7682 60.8094 15.2725 60.8094 14.7283C60.8094 14.0924 60.9284 13.532 61.1555 13.0686C61.388 12.5944 61.7066 12.2064 62.1337 11.8993C62.5497 11.5868 63.0469 11.3551 63.62 11.2096C64.1926 11.0587 64.8252 10.9832 65.5063 10.9832C65.5114 10.6545 65.4683 10.3582 65.3873 10.0941C65.3008 9.84088 65.1443 9.63072 64.9172 9.47985C64.6957 9.32897 64.3711 9.24814 63.9605 9.24814C63.5605 9.24814 63.1824 9.3128 62.8198 9.43674C62.4527 9.56067 62.1282 9.72233 61.8471 9.9217L61.415 8.20276C61.604 8.07344 61.8471 7.94412 62.1391 7.8094C62.4362 7.68547 62.7713 7.5777 63.1499 7.49148C63.5334 7.40526 63.944 7.36754 64.3926 7.36215C65.0628 7.36754 65.6089 7.4807 66.052 7.70163C66.4951 7.92256 66.8411 8.22971 67.0952 8.61768C67.3492 9.00565 67.5328 9.44751 67.6408 9.93787C67.7493 10.4336 67.7978 10.9563 67.7978 11.5059V15.0085C67.7978 15.4503 68.0409 15.9191 68.6785 15.9568V17.8051C67.3007 18.15 66.3005 17.7889 65.7279 16.6466ZM36.726 15.7359C36.8935 15.6713 37.0611 15.5743 37.2126 15.4396C37.3691 15.3102 37.4936 15.127 37.5962 14.9115C37.6937 14.6905 37.7477 14.4265 37.7527 14.1086V12.7722C37.4231 12.7668 37.1045 12.7938 36.7965 12.8477C36.4884 12.8962 36.2019 12.9878 35.9533 13.1171C35.6993 13.2518 35.4992 13.435 35.3532 13.6613C35.2017 13.8984 35.1262 14.0978 35.1207 14.4588C35.1262 14.7714 35.1802 15.03 35.2832 15.2294C35.3802 15.4288 35.5262 15.5743 35.6938 15.6713C35.8613 15.7683 36.0503 15.8167 36.2504 15.8114C36.4019 15.8275 36.5584 15.7952 36.726 15.7359ZM51.3945 17.5249L51.373 7.53998H53.8265L53.8535 17.5249H51.3945ZM79.3262 17.6327C78.9961 17.5734 78.6936 17.498 78.407 17.3956C78.1264 17.2932 77.8774 17.18 77.6613 17.0453L77.9584 15.1001C78.1314 15.2078 78.8071 15.5365 79.4827 15.6766C79.7528 15.7467 80.0288 15.779 80.2879 15.7844C80.7259 15.779 81.05 15.6874 81.2556 15.5096C81.4661 15.3264 81.5691 15.0839 81.5581 14.7714C81.5526 14.572 81.5096 14.3888 81.4176 14.2325C81.3311 14.0816 81.1906 13.9362 80.9855 13.7961C80.7905 13.6613 80.5149 13.5105 80.1693 13.3596C79.5802 13.1009 79.1046 12.8153 78.7425 12.5082C78.3855 12.1903 78.1209 11.8616 77.9534 11.5113C77.7858 11.1611 77.6938 10.8 77.6883 10.4282C77.6723 9.81932 77.8019 9.28047 78.0669 8.80089C78.3315 8.3267 78.7206 7.9495 79.2232 7.6693C79.7313 7.39449 80.3314 7.25438 81.0285 7.249C81.5096 7.25438 81.9527 7.30827 82.3583 7.41604C82.7579 7.52381 83.0984 7.65314 83.374 7.81479L83.1904 9.73849C82.9794 9.61456 82.4878 9.4529 82.1743 9.34513C81.8662 9.23197 81.5311 9.17809 81.1745 9.16731C80.796 9.1727 80.5094 9.26969 80.3204 9.44213C80.1313 9.61995 80.0338 9.84626 80.0448 10.1265C80.0448 10.3097 80.0933 10.4713 80.1908 10.6114C80.2828 10.7569 80.4394 10.8916 80.65 11.021C80.8665 11.1557 81.153 11.3012 81.5151 11.4628C82.3148 11.8131 82.9149 12.2388 83.304 12.7399C83.6985 13.2464 83.9091 13.8445 83.9256 14.5343C83.9416 15.1755 83.8121 15.7359 83.5365 16.2101C83.2605 16.6843 82.8499 17.0561 82.3093 17.3201C81.7691 17.5788 81.104 17.7135 80.3259 17.7243C79.9853 17.7081 79.6448 17.6866 79.3262 17.6327ZM28.5378 17.7189C27.6191 17.7135 26.8084 17.5411 26.1003 17.2016C25.3924 16.8621 24.7978 16.3772 24.3114 15.7467C23.8304 15.1216 23.4629 14.3726 23.2143 13.5105C22.9602 12.6429 22.8359 11.6838 22.8359 10.6276C22.8413 9.38824 23.0035 8.29976 23.3169 7.37293C23.6304 6.44072 24.0628 5.65938 24.6141 5.0397C25.1654 4.41463 25.7977 3.94583 26.5164 3.6333C27.2355 3.32076 28.0082 3.1645 28.8244 3.1645C29.262 3.1645 29.651 3.19683 29.9866 3.25071C30.7972 3.41237 31.6184 3.6333 32.4561 4.02127L32.2456 6.04197L31.5049 6.03658C30.6888 5.54084 29.8296 5.44384 28.9324 5.44384C28.4243 5.44384 27.9487 5.54622 27.5111 5.7456C27.073 5.95036 26.6839 6.25751 26.3544 6.67242C26.0248 7.08195 25.7653 7.61003 25.5815 8.24048C25.3978 8.87094 25.3004 9.61995 25.295 10.4713C25.3004 11.5436 25.4518 12.4435 25.7436 13.171C26.0408 13.9038 26.4569 14.4535 26.9975 14.8253C27.5436 15.2025 28.1812 15.3857 28.9214 15.3911C29.7916 15.3749 30.6297 15.2025 31.4294 14.8414L32.1645 14.8253L32.3916 16.8729C31.1213 17.5465 29.516 17.762 28.5378 17.7189ZM69.6352 15.2779V2.27539L72.1432 3.46087V14.9761C72.1487 15.6497 72.4297 15.8868 72.8999 15.8976V17.7027C70.6569 18.0638 69.6352 17.0992 69.6352 15.2779ZM86.8442 17.568C86.5036 17.3956 86.2331 17.1747 86.0385 16.8891C85.844 16.6142 85.7035 16.3125 85.617 15.9892C85.5254 15.6659 85.4714 15.3587 85.4494 15.0516C85.4279 14.7444 85.4169 14.4858 85.4224 14.2595L85.4169 9.42596H84.2877V7.54537H85.4169L85.4224 4.06438L87.8819 5.38996V7.53998H89.5733V9.47446H87.8819V14.3672C87.8819 15.057 87.9789 15.3479 88.1575 15.6174C88.341 15.8814 88.9301 16.0969 89.5733 15.9245V17.6435C89.4437 17.7027 89.2977 17.7405 89.1462 17.7674C88.8601 17.8051 88.5301 17.8267 88.1629 17.8267C87.6329 17.8267 87.1953 17.7351 86.8442 17.568ZM57.2262 17.568C56.8856 17.3956 56.6155 17.1747 56.421 16.8891C56.2264 16.6142 56.0859 16.3125 55.9994 15.9892C55.9074 15.6659 55.8534 15.3587 55.8319 15.0516C55.8099 14.7444 55.7994 14.4858 55.8049 14.2595L55.7994 9.42596H54.6696V7.54537H55.7994L55.8099 4.05899L58.2694 5.38457V7.53459H59.9607V9.46907H58.2694V14.3618C58.2694 15.0516 58.3664 15.3426 58.5449 15.612C58.7285 15.876 59.3176 16.0916 59.9607 15.9191V17.6381C59.8312 17.6973 59.6852 17.7351 59.5341 17.762C59.2476 17.7997 58.918 17.8213 58.5504 17.8213C58.0153 17.8267 57.5772 17.7351 57.2262 17.568ZM37.8717 16.6466L37.8392 16.6735C37.5852 17.0723 36.888 17.7081 35.5372 17.7081C35.0021 17.7027 34.548 17.5626 34.1589 17.2986C33.7749 17.0292 33.4778 16.6681 33.2672 16.2209C33.0617 15.7682 32.9537 15.2725 32.9537 14.7283C32.9537 14.0924 33.0722 13.532 33.2993 13.0686C33.5318 12.5944 33.8509 12.2064 34.2775 11.8993C34.694 11.5868 35.1912 11.3551 35.7638 11.2096C36.3369 11.0587 36.969 10.9832 37.6502 10.9832C37.6557 10.6545 37.6126 10.3582 37.5312 10.0941C37.4446 9.84088 37.2881 9.63072 37.0611 9.47985C36.8395 9.32897 36.5154 9.24814 36.1044 9.24814C35.7047 9.24814 35.3262 9.3128 34.9641 9.43674C34.5965 9.56067 34.2725 9.72233 33.9914 9.9217L33.5588 8.20276C33.7479 8.07344 33.9914 7.94412 34.283 7.8094C34.5805 7.68547 34.9156 7.5777 35.2937 7.49148C35.6777 7.40526 36.0883 7.36754 36.5369 7.36215C37.2071 7.36754 37.7532 7.4807 38.1963 7.70163C38.6394 7.92256 38.9854 8.22971 39.239 8.61768C39.4985 9.00565 39.6771 9.44751 39.7851 9.93787C39.8931 10.4336 39.9416 10.9563 39.9416 11.5059V15.0085C39.9416 15.4503 40.1852 15.9191 40.8228 15.9568V17.8051C39.439 18.15 38.4393 17.7889 37.8717 16.6466ZM44.3465 20.6772L41.9306 19.5456V10.8C41.9306 10.1642 41.9255 9.57684 41.909 9.03799C41.8985 8.50452 41.9306 7.84712 41.909 7.39449H43.7739C43.8819 7.61003 43.963 7.83635 44.0115 8.06266C44.6766 7.55614 45.4818 7.29749 46.4384 7.30827C47.4272 7.30827 48.0708 7.56153 48.5894 7.98722C49.108 8.40214 49.5136 8.98949 49.8107 9.74927C50.1082 10.5091 50.2593 11.3928 50.2647 12.4166C50.2593 13.3272 50.1512 14.114 49.9407 14.7768C49.7296 15.4396 49.4436 15.9784 49.092 16.4095C48.7354 16.8352 48.3353 17.1531 47.8977 17.3579C47.4597 17.5626 47.0006 17.665 46.5355 17.665C45.6873 17.692 44.9466 17.471 44.3465 16.9753V20.6772Z" fill="#8EA652"/>
<path d="M25.4726 23.7645C25.4726 24.2118 25.3644 24.5728 25.1482 24.8476C24.9321 25.1224 24.6348 25.2572 24.2619 25.2572C24.0673 25.2572 23.8998 25.2248 23.7593 25.1602C23.6133 25.0955 23.489 24.9985 23.3917 24.8692V26.3887H22.8242V22.0941H23.2566L23.3485 22.4928C23.4512 22.342 23.5755 22.2288 23.7268 22.1534C23.8781 22.0725 24.0565 22.0348 24.2565 22.0348C24.6402 22.0348 24.9429 22.1857 25.1536 22.4928C25.3698 22.8 25.4726 23.2041 25.4726 23.7053V23.7645ZM24.905 23.7053C24.905 23.355 24.8348 23.064 24.6942 22.8377C24.5537 22.6114 24.3484 22.4982 24.0781 22.4982C23.916 22.4982 23.7755 22.536 23.662 22.6114C23.5485 22.6868 23.4512 22.7838 23.3809 22.9132V24.4112C23.4512 24.5405 23.5431 24.6375 23.662 24.7129C23.7755 24.783 23.916 24.8207 24.0835 24.8207C24.3538 24.8207 24.5537 24.7237 24.6942 24.5297C24.8348 24.3303 24.8996 24.0825 24.8996 23.7699V23.7053H24.905ZM28.0778 25.1979C28.0613 25.1063 28.0453 25.0201 28.0343 24.95C28.0233 24.88 28.0183 24.8045 28.0183 24.7345C27.9103 24.8854 27.7748 25.0093 27.6073 25.1117C27.4397 25.2141 27.2562 25.2625 27.0616 25.2625C26.7371 25.2625 26.4885 25.1817 26.321 25.0147C26.1535 24.8476 26.0669 24.6213 26.0669 24.3303C26.0669 24.034 26.186 23.8023 26.429 23.6352C26.6725 23.4682 26.9966 23.382 27.4072 23.382H28.0233V23.0748C28.0233 22.8916 27.9693 22.7515 27.8558 22.6437C27.7427 22.536 27.5857 22.4821 27.3857 22.4821C27.2021 22.4821 27.0561 22.5306 26.9426 22.6222C26.8291 22.7138 26.7696 22.8269 26.7696 22.9563H26.229L26.2239 22.9401C26.213 22.7138 26.321 22.509 26.5425 22.3204C26.7696 22.1318 27.0616 22.0402 27.4182 22.0402C27.7698 22.0402 28.0558 22.1318 28.2669 22.3096C28.4829 22.4875 28.591 22.7461 28.591 23.0856V24.5782C28.591 24.6914 28.5964 24.7937 28.6074 24.9015C28.618 25.0039 28.6399 25.1063 28.672 25.2033H28.0778V25.1979ZM27.1372 24.7884C27.3427 24.7884 27.5262 24.7345 27.6938 24.6321C27.8613 24.5243 27.9643 24.4058 28.0183 24.2711V23.7645H27.3802C27.1536 23.7645 26.9696 23.8238 26.8346 23.937C26.6995 24.0501 26.6291 24.1848 26.6291 24.3411C26.6291 24.4812 26.6725 24.589 26.7591 24.6698C26.8456 24.7453 26.9696 24.7884 27.1372 24.7884ZM30.3583 24.0501L30.4613 24.4381H30.4773L31.245 22.0941H31.8771L30.5693 25.6721C30.4883 25.8822 30.3798 26.06 30.2288 26.2163C30.0828 26.3726 29.8827 26.448 29.6342 26.448C29.5911 26.448 29.5316 26.4426 29.4611 26.4319C29.3911 26.4211 29.3371 26.4103 29.2991 26.3995L29.3586 25.9577C29.3476 25.9577 29.3801 25.9577 29.4611 25.9631C29.5422 25.9684 29.5911 25.9738 29.6126 25.9738C29.7317 25.9738 29.8342 25.9199 29.9097 25.8122C29.9857 25.7044 30.0502 25.5859 30.1043 25.4565L30.2393 25.1332L29.083 22.0941H29.7152L30.3583 24.0501ZM32.8768 22.0941L32.9148 22.5036C33.0174 22.3581 33.1474 22.2396 33.3039 22.1588C33.4609 22.0779 33.639 22.0348 33.85 22.0348C34.0551 22.0348 34.2336 22.0833 34.3851 22.1803C34.5362 22.2773 34.6442 22.4228 34.7202 22.6114C34.8172 22.4336 34.9472 22.2989 35.1093 22.1911C35.2713 22.0887 35.4604 22.0348 35.6714 22.0348C35.99 22.0348 36.2385 22.1426 36.4225 22.3581C36.6061 22.5737 36.6981 22.9024 36.6981 23.3388V25.1925H36.1305V23.3335C36.1305 23.0263 36.0765 22.8108 35.9739 22.6868C35.8659 22.5575 35.7089 22.4982 35.5038 22.4982C35.3093 22.4982 35.1523 22.5629 35.0333 22.6976C34.9147 22.8323 34.8442 22.9994 34.8227 23.2041V23.2257V25.1979H34.2551V23.3388C34.2551 23.0479 34.2011 22.8377 34.0931 22.703C33.985 22.5683 33.828 22.4982 33.623 22.4982C33.4499 22.4982 33.3094 22.536 33.1959 22.606C33.0824 22.6761 33.0013 22.7784 32.9418 22.9024V25.1979H32.3742V22.0941H32.8768ZM38.8115 25.2572C38.3789 25.2572 38.0329 25.1117 37.7793 24.8261C37.5252 24.5405 37.3953 24.1633 37.3953 23.7053V23.5813C37.3953 23.1395 37.5253 22.773 37.7898 22.4767C38.0549 22.1803 38.3629 22.0348 38.725 22.0348C39.1466 22.0348 39.4601 22.1588 39.6762 22.412C39.8923 22.6653 40.0003 22.9994 40.0003 23.4197V23.7699H37.9844L37.9738 23.7861C37.9789 24.0825 38.0549 24.3303 38.2004 24.5189C38.3464 24.7129 38.552 24.8099 38.8115 24.8099C39.0061 24.8099 39.1736 24.783 39.3196 24.7291C39.4652 24.6752 39.5897 24.5998 39.6922 24.5028L39.9138 24.8692C39.8003 24.977 39.6547 25.0686 39.4762 25.144C39.2871 25.2248 39.0656 25.2572 38.8115 25.2572ZM38.725 22.4821C38.536 22.4821 38.3735 22.5629 38.2384 22.7246C38.1034 22.8862 38.0224 23.0856 37.9899 23.3281L37.9954 23.3442H39.4331V23.2688C39.4331 23.0479 39.3736 22.8593 39.2546 22.7138C39.1301 22.5575 38.9575 22.4821 38.725 22.4821ZM41.141 22.0941L41.1785 22.5575C41.2815 22.3905 41.4111 22.2665 41.5676 22.1749C41.7246 22.0833 41.9027 22.0402 42.1027 22.0402C42.4378 22.0402 42.6973 22.1372 42.8813 22.3312C43.0649 22.5306 43.1569 22.8323 43.1569 23.2419V25.1979H42.5893V23.2526C42.5893 22.9778 42.5353 22.7838 42.4273 22.6707C42.3192 22.5575 42.1517 22.4982 41.9297 22.4982C41.7676 22.4982 41.6216 22.536 41.4976 22.6168C41.3731 22.6976 41.2705 22.8054 41.195 22.9401V25.2033H40.6274V22.0995H41.141V22.0941ZM44.7297 21.3451V22.0941H45.3188V22.5144H44.7297V24.4004C44.7297 24.5459 44.7567 24.6483 44.8213 24.7075C44.8808 24.7668 44.9618 24.7991 45.0648 24.7991C45.0973 24.7991 45.1348 24.7937 45.1728 24.7884C45.2104 24.783 45.2484 24.7722 45.2754 24.7614L45.3509 25.1494C45.3079 25.1817 45.2483 25.2141 45.1673 25.2356C45.0863 25.2572 45.0053 25.2679 44.9188 25.2679C44.6862 25.2679 44.5082 25.1979 44.3676 25.0578C44.2322 24.9177 44.1621 24.7021 44.1621 24.4058V22.5198H43.665V22.0995H44.1621V21.3505H44.7297V21.3451ZM48.702 24.3734C48.702 24.2495 48.6535 24.1471 48.5615 24.0663C48.464 23.9855 48.286 23.9154 48.0209 23.8561C47.6428 23.7753 47.3618 23.6622 47.1672 23.5221C46.9777 23.382 46.8807 23.188 46.8807 22.9455C46.8807 22.6922 46.9887 22.4767 47.2048 22.2989C47.4213 22.121 47.7023 22.0294 48.0424 22.0294C48.405 22.0294 48.6911 22.121 48.9076 22.3096C49.1236 22.4982 49.2207 22.7192 49.2156 22.9886L49.2101 23.0048H48.6695C48.6695 22.87 48.61 22.7461 48.4965 22.6383C48.383 22.5306 48.2319 22.4767 48.0424 22.4767C47.8429 22.4767 47.6913 22.5198 47.5938 22.6114C47.4968 22.6976 47.4483 22.8054 47.4483 22.9293C47.4483 23.0533 47.4913 23.1502 47.5778 23.2203C47.6643 23.2903 47.8429 23.355 48.1019 23.4089C48.4965 23.4951 48.7886 23.6083 48.9776 23.7538C49.1667 23.8993 49.2642 24.0932 49.2642 24.3357C49.2642 24.6105 49.1506 24.8315 48.9291 25.0039C48.7075 25.1763 48.4155 25.2572 48.0534 25.2572C47.6588 25.2572 47.3453 25.1548 47.1182 24.9554C46.8917 24.756 46.7832 24.5189 46.7942 24.2549L46.7997 24.2387H47.3403C47.3508 24.4381 47.4263 24.5836 47.5618 24.6806C47.7023 24.7722 47.8644 24.8207 48.0534 24.8207C48.2535 24.8207 48.41 24.7776 48.529 24.6968C48.648 24.6159 48.702 24.5082 48.702 24.3734ZM50.929 24.0501L51.0315 24.4381H51.0475L51.8152 22.0941H52.4473L51.1395 25.6721C51.0585 25.8822 50.9505 26.06 50.799 26.2163C50.653 26.3726 50.4529 26.448 50.2044 26.448C50.1613 26.448 50.1018 26.4426 50.0318 26.4319C49.9613 26.4211 49.9073 26.4103 49.8693 26.3995L49.9288 25.9577C49.9183 25.9577 49.9503 25.9577 50.0318 25.9631C50.1128 25.9684 50.1613 25.9738 50.1829 25.9738C50.3019 25.9738 50.4044 25.9199 50.4804 25.8122C50.5559 25.7044 50.6209 25.5859 50.6749 25.4565L50.81 25.1332L49.6532 22.0941H50.2854L50.929 24.0501ZM54.7498 24.3734C54.7498 24.2495 54.7013 24.1471 54.6093 24.0663C54.5122 23.9855 54.3337 23.9154 54.0691 23.8561C53.6906 23.7753 53.4095 23.6622 53.215 23.5221C53.0259 23.382 52.9284 23.188 52.9284 22.9455C52.9284 22.6922 53.0364 22.4767 53.253 22.2989C53.469 22.121 53.7501 22.0294 54.0906 22.0294C54.4527 22.0294 54.7393 22.121 54.9553 22.3096C55.1714 22.4982 55.2689 22.7192 55.2634 22.9886L55.2579 23.0048H54.7173C54.7173 22.87 54.6582 22.7461 54.5447 22.6383C54.4312 22.5306 54.2797 22.4767 54.0906 22.4767C53.8906 22.4767 53.7391 22.5198 53.642 22.6114C53.5445 22.6976 53.496 22.8054 53.496 22.9293C53.496 23.0533 53.539 23.1502 53.6256 23.2203C53.7121 23.2903 53.8906 23.355 54.1501 23.4089C54.5447 23.4951 54.8363 23.6083 55.0254 23.7538C55.2149 23.8993 55.3119 24.0932 55.3119 24.3357C55.3119 24.6105 55.1984 24.8315 54.9768 25.0039C54.7553 25.1763 54.4632 25.2572 54.1012 25.2572C53.7066 25.2572 53.3935 25.1548 53.1664 24.9554C52.9394 24.756 52.8314 24.5189 52.8419 24.2549L52.8474 24.2387H53.388C53.3985 24.4381 53.4745 24.5836 53.6095 24.6806C53.7501 24.7722 53.9121 24.8207 54.1012 24.8207C54.3012 24.8207 54.4582 24.7776 54.5768 24.6968C54.6903 24.6159 54.7498 24.5082 54.7498 24.3734ZM56.7657 21.3451V22.0941H57.3548V22.5144H56.7657V24.4004C56.7657 24.5459 56.7927 24.6483 56.8577 24.7075C56.9172 24.7668 56.9982 24.7991 57.1008 24.7991C57.1333 24.7991 57.1713 24.7937 57.2093 24.7884C57.2468 24.783 57.2848 24.7722 57.3118 24.7614L57.3873 25.1494C57.3443 25.1817 57.2848 25.2141 57.2038 25.2356C57.1227 25.2572 57.0417 25.2679 56.9552 25.2679C56.7227 25.2679 56.5442 25.1979 56.4036 25.0578C56.2686 24.9177 56.1986 24.7021 56.1986 24.4058V22.5198H55.701V22.0995H56.1986V21.3505H56.7657V21.3451ZM59.3437 25.2572C58.9116 25.2572 58.5656 25.1117 58.3115 24.8261C58.0575 24.5405 57.9279 24.1633 57.9279 23.7053V23.5813C57.9279 23.1395 58.0575 22.773 58.3225 22.4767C58.5871 22.1803 58.8951 22.0348 59.2572 22.0348C59.6788 22.0348 59.9924 22.1588 60.2089 22.412C60.4249 22.6653 60.533 22.9994 60.533 23.4197V23.7699H58.517L58.5061 23.7861C58.5116 24.0825 58.5871 24.3303 58.7331 24.5189C58.8791 24.7129 59.0847 24.8099 59.3437 24.8099C59.5383 24.8099 59.7058 24.783 59.8518 24.7291C59.9979 24.6752 60.1224 24.5998 60.2249 24.5028L60.4464 24.8692C60.3329 24.977 60.1869 25.0686 60.0088 25.144C59.8248 25.2248 59.6033 25.2572 59.3437 25.2572ZM59.2572 22.4821C59.0682 22.4821 58.9061 22.5629 58.7711 22.7246C58.6361 22.8862 58.555 23.0856 58.5225 23.3281L58.5276 23.3442H59.9654V23.2688C59.9654 23.0479 59.9058 22.8593 59.7873 22.7138C59.6683 22.5575 59.4953 22.4821 59.2572 22.4821ZM61.6787 22.0941L61.7167 22.5036C61.8192 22.3581 61.9488 22.2396 62.1058 22.1588C62.2623 22.0779 62.4408 22.0348 62.6514 22.0348C62.8569 22.0348 63.0355 22.0833 63.1865 22.1803C63.338 22.2773 63.4461 22.4228 63.5216 22.6114C63.6191 22.4336 63.7486 22.2989 63.9107 22.1911C64.0732 22.0887 64.2622 22.0348 64.4728 22.0348C64.7918 22.0348 65.0404 22.1426 65.2244 22.3581C65.408 22.5737 65.5 22.9024 65.5 23.3388V25.1925H64.9324V23.3335C64.9324 23.0263 64.8783 22.8108 64.7758 22.6868C64.6673 22.5575 64.5108 22.4982 64.3053 22.4982C64.1107 22.4982 63.9542 22.5629 63.8351 22.6976C63.7161 22.8323 63.6461 22.9994 63.6246 23.2041V23.2257V25.1979H63.057V23.3388C63.057 23.0479 63.003 22.8377 62.8949 22.703C62.7869 22.5683 62.6299 22.4982 62.4244 22.4982C62.2518 22.4982 62.1113 22.536 61.9977 22.606C61.8842 22.6761 61.8032 22.7784 61.7437 22.9024V25.1979H61.1761V22.0941H61.6787Z" fill="white"/>
</svg>
