<svg width="1859" height="602" viewBox="0 0 1859 602" fill="none" xmlns="http://www.w3.org/2000/svg">
<g opacity="0.15">
<path d="M0.999614 170.679C0.999614 170.679 73.3712 157.157 92.6056 162.592C111.687 168.076 74.2739 182.117 94.7992 189.852C115.325 197.587 131.066 200.207 193.22 187.537C255.509 174.912 252.982 172.311 361.837 151.975C470.403 131.645 491.389 126.254 546.34 138.1C601.29 149.946 567.632 178.379 506.021 214.109C444.562 249.789 402.437 268.249 408.927 279.563C415.552 290.921 445.329 282.333 479.945 280.859C514.848 279.379 536.647 274.251 557.172 281.986C577.697 289.721 606.789 284.774 684.63 272.726C762.471 260.677 806.284 240.881 825.022 252C843.914 263.07 856.108 253.247 794.379 296.467C732.785 339.732 720.933 343.919 713.234 366.491" stroke="white" stroke-width="0.635" stroke-miterlimit="10"/>
<path d="M3.54916 170.118C3.54916 170.118 75.3439 156.607 94.7489 161.899C114.001 167.24 77.3527 181.034 97.7602 188.631C116.967 195.741 131.996 198.328 183.951 188.697C187.824 187.97 191.85 187.193 196.028 186.366C258.112 174.07 255.09 171.804 362.721 151.865C470.216 131.882 491.49 126.485 545.882 138.249C555.825 140.379 562.932 143.076 567.355 146.291C584.558 158.696 563.596 178.459 525.507 202.189C519.495 205.889 513.158 209.782 506.245 213.686C445.434 248.981 403.751 267.386 410.376 278.744C417.001 290.102 446.76 281.607 481.529 280.084C513.972 278.699 535.377 274.137 554.982 279.89C556.201 280.284 557.555 280.723 558.909 281.161C579.605 288.753 609.138 283.751 686.385 271.808C700.139 269.722 712.792 267.379 724.292 265.059C778.36 254.131 810.565 242.564 825.636 251.802C840.064 260.634 849.896 256.486 825.124 275.116C818.253 280.321 809.388 286.962 795.975 296.39C735.299 339.357 723.277 343.687 715.478 366.028" stroke="white" stroke-width="0.635" stroke-miterlimit="10"/>
<path d="M8.57598 169.367C8.57598 169.367 80.0823 155.862 99.5049 161.061C118.792 166.215 82.6029 179.86 103.181 187.315C122.422 194.238 137.605 196.775 189.237 187.337C192.956 186.659 196.982 185.882 201.16 185.055C263.056 172.996 259.523 171.159 365.947 151.522C472.371 131.886 493.78 126.533 547.766 138.165C557.709 140.295 564.681 142.948 568.968 146.119C586.036 158.481 565.397 178.052 527.768 201.633C521.755 205.333 515.572 209.176 508.812 213.031C448.63 248.034 407.406 266.29 414.184 277.599C420.826 288.864 450.551 280.556 485.319 279.032C517.763 277.648 539.167 273.085 558.79 278.745C560.009 279.139 561.228 279.534 562.582 279.972C583.737 287.416 613.44 282.271 690.21 270.569C703.965 268.484 716.6 266.234 728.236 263.958C782.25 253.31 813.709 241.898 828.608 251.279C842.577 260.259 851.68 256.172 828.215 274.729C821.479 279.979 813.65 286.459 800.372 295.931C740.614 338.601 728.439 342.981 720.522 365.184" stroke="white" stroke-width="0.635" stroke-miterlimit="10"/>
<path d="M15.6412 168.484C15.6412 168.484 86.5707 154.99 106.164 160.045C125.622 165.057 90.0445 178.504 110.658 185.772C129.917 192.601 145.27 194.996 196.578 185.75C200.298 185.072 204.459 184.339 208.484 183.562C270.038 171.788 266.011 170.286 371.5 151.04C476.7 131.8 498.551 126.392 552.112 137.986C561.92 140.072 568.892 142.725 573.179 145.897C590.112 158.214 569.779 177.686 532.626 201.025C526.766 204.676 520.447 208.475 513.823 212.373C454.423 247.036 413.505 265.193 420.419 276.546C427.214 287.761 456.768 279.596 491.537 278.072C523.692 276.693 545.232 272.175 565.025 277.691C566.397 278.036 567.616 278.431 568.817 278.919C590.143 286.219 620.152 280.976 696.463 269.422C710.217 267.337 722.988 265.131 734.471 262.904C788.28 252.586 819.279 241.323 833.584 250.808C847.094 259.937 855.485 255.818 833.02 274.402C826.555 279.739 819.491 285.972 806.331 295.581C747.491 337.953 735.01 342.432 726.976 364.499" stroke="white" stroke-width="0.635" stroke-miterlimit="10"/>
<path d="M25.0423 167.367C25.0423 167.367 95.5304 153.929 115.159 158.797C134.652 163.622 99.6865 176.871 120.317 184.046C139.747 190.732 155.118 193.034 206.102 183.98C209.822 183.302 213.83 182.618 218.008 181.792C279.357 170.348 274.835 169.181 379.1 150.332C483.093 131.395 505.215 126.074 558.524 137.487C568.332 139.573 575.168 142.182 579.455 145.354C596.252 157.627 576.378 176.951 539.549 200.097C533.689 203.748 527.524 207.498 521.052 211.347C462.435 245.668 421.823 263.726 428.89 275.029C435.838 286.195 465.086 278.129 499.99 276.649C532.01 275.226 553.532 270.801 573.496 276.175C574.868 276.52 575.934 276.964 577.441 277.353C599.99 284.257 629.388 279.211 704.951 267.812C718.706 265.727 731.324 263.571 742.788 261.437C796.256 251.405 826.932 240.334 840.778 249.968C853.982 259.196 861.49 255.187 840.044 273.704C833.85 279.129 827.839 285.109 814.526 294.767C756.604 336.843 744.106 341.415 735.817 363.301" stroke="white" stroke-width="0.635" stroke-miterlimit="10"/>
<path d="M36.1987 166.124C36.1987 166.124 106.11 152.697 125.756 157.473C145.284 162.111 111.066 175.205 131.732 182.193C151.044 188.742 166.721 190.945 217.229 182.133C220.948 181.455 224.956 180.771 229.117 180.038C290.26 168.924 285.397 168.043 388.438 149.59C491.36 130.999 513.771 125.673 566.52 137.005C576.192 139.046 583.028 141.656 587.316 144.827C603.978 157.057 584.274 176.237 548.057 199.186C542.35 202.787 536.185 206.537 529.713 210.385C471.879 244.366 431.708 262.369 438.774 273.672C445.876 284.788 475.106 276.815 509.875 275.292C541.741 273.918 563.417 269.444 583.399 274.724C584.77 275.069 585.989 275.464 587.343 275.902C610.369 282.564 639.92 277.469 714.871 266.268C728.626 264.183 741.226 262.12 752.826 260.031C806.241 250.278 836.305 239.405 849.692 249.188C862.437 258.565 869.215 254.617 849.076 273.062C843.017 278.53 838.042 284.35 824.712 294.102C767.861 335.83 755.056 340.502 746.65 362.25" stroke="white" stroke-width="0.635" stroke-miterlimit="10"/>
<path d="M49.2522 164.703C49.2522 164.703 118.722 151.332 138.403 155.92C157.949 160.465 123.884 173.51 145.197 180.113C165.139 186.371 180.527 188.579 230.694 180.053C234.549 179.419 238.268 178.741 242.429 178.008C303.231 167.179 298.009 166.677 399.979 148.571C501.677 130.377 524.376 125.045 576.719 136.245C586.392 138.286 593.228 140.896 597.38 144.023C613.906 156.209 594.508 175.291 558.768 197.997C553.061 201.598 547.048 205.299 540.73 209.098C483.678 242.737 443.814 260.641 451.033 271.894C458.288 282.961 487.347 275.131 522.116 273.608C553.847 272.191 575.369 267.766 595.657 272.947C597.029 273.292 598.248 273.686 599.602 274.125C623.087 280.638 652.655 275.45 727.283 264.441C741.173 262.4 753.773 260.337 765.22 258.297C818.294 248.83 848.052 238.057 860.98 247.988C873.419 257.464 879.602 253.621 860.193 272.005C854.252 277.61 850.33 283.176 837.135 292.972C781.203 334.404 768.227 339.218 759.721 360.736" stroke="white" stroke-width="0.635" stroke-miterlimit="10"/>
<path d="M63.7633 163.161C63.7633 163.161 132.656 149.801 152.643 154.29C172.224 158.648 138.772 171.495 160.102 178.004C180.214 184.119 195.62 186.234 245.463 177.901C249.318 177.267 253.173 176.632 257.334 175.899C318.083 165.351 312.061 165.284 412.825 147.48C513.588 129.676 536.439 124.295 588.223 135.413C597.76 137.411 604.596 140.02 608.613 143.104C625.004 155.246 605.93 174.135 570.648 196.693C565.095 200.244 559.082 203.944 552.763 207.744C496.494 241.042 456.782 258.896 464.29 270.144C471.545 281.211 500.587 273.474 535.355 271.951C566.934 270.583 588.609 266.109 608.914 271.197C610.286 271.542 611.505 271.936 612.877 272.281C635.597 279.042 666.542 273.408 740.575 262.504C754.312 260.512 767.048 258.493 778.495 256.453C831.228 247.273 860.662 236.691 873.131 246.771C885.111 256.396 890.565 252.613 872.309 270.974C866.639 276.668 863.635 281.937 850.27 291.876C795.119 332.966 782.127 337.874 773.35 359.304" stroke="white" stroke-width="0.635" stroke-miterlimit="10"/>
<path d="M79.8598 161.634C79.8598 161.634 148.176 148.285 168.334 152.632C188.085 156.847 155.703 169.347 176.61 175.818C196.281 181.989 212.316 183.812 261.836 175.671C265.538 175.086 269.546 174.403 273.554 173.719C333.961 163.456 327.581 163.768 427.273 146.311C526.812 128.904 549.952 123.517 601.33 134.503C610.867 136.501 617.567 139.067 621.584 142.15C637.84 154.249 618.936 172.995 584.267 195.355C578.713 198.906 572.853 202.557 566.535 206.356C510.895 239.363 471.643 257.069 479.303 268.267C486.711 279.284 515.583 271.69 550.351 270.167C581.794 268.755 603.451 264.374 623.927 269.319C625.299 269.664 626.518 270.059 627.89 270.404C650.933 276.973 682.184 271.239 755.606 260.534C769.343 258.542 782.214 256.567 793.491 254.669C846.018 245.818 874.993 235.386 886.868 245.57C898.389 255.343 903.112 251.622 886.027 269.867C880.628 275.648 878.525 280.713 865.295 290.696C811.063 331.489 798.052 336.49 789.022 357.739" stroke="white" stroke-width="0.635" stroke-miterlimit="10"/>
<path d="M97.4101 159.985C97.4101 159.985 165.285 146.692 185.478 150.851C205.264 154.88 173.495 167.182 194.419 173.56C214.26 179.587 230.313 181.317 279.356 173.418C283.058 172.833 286.913 172.199 291.057 171.559C351.258 161.626 344.384 162.274 443.005 145.164C541.491 128.01 564.902 122.71 615.873 133.565C625.41 135.563 631.975 138.085 635.992 141.168C652.112 153.223 633.379 171.826 599.321 193.987C593.921 197.49 588.061 201.14 581.895 204.89C527.038 237.556 488.092 255.162 495.888 266.404C503.449 277.372 532.15 269.921 566.936 268.304C598.226 266.943 620.036 262.512 640.53 267.363C641.902 267.708 643.273 268.053 644.492 268.448C667.842 274.918 699.263 269.041 772.226 258.485C785.963 256.492 798.817 254.611 810.093 252.714C862.432 244.099 890.931 233.908 902.499 244.192C913.714 254.064 917.843 250.447 901.624 268.675C896.36 274.5 895.293 279.405 882.045 289.481C828.731 329.977 815.414 335.077 806.419 356.14" stroke="white" stroke-width="0.635" stroke-miterlimit="10"/>
<path d="M115.98 158.27C115.98 158.27 183.278 144.988 203.641 149.005C223.463 152.846 192.441 164.994 213.4 171.185C233.124 177.075 249.618 178.75 298.202 171C301.904 170.415 305.759 169.781 309.75 169.19C369.899 159.538 362.377 160.57 459.774 143.856C557.171 127.142 581.023 121.787 631.435 132.56C640.837 134.514 647.402 137.036 651.419 140.12C667.403 152.13 648.977 170.634 615.26 192.51C609.86 196.012 604.153 199.613 597.852 203.319C543.777 235.644 505.272 253.195 513.086 264.344C520.664 275.218 549.483 267.905 584.116 266.337C615.118 264.981 637.064 260.594 657.728 265.303C659.1 265.648 660.336 265.949 661.843 266.338C685.516 272.615 717.226 266.733 789.73 256.325C803.467 254.333 816.321 252.451 827.715 250.691C879.713 242.362 907.752 232.32 918.997 242.796C929.753 252.817 933.288 249.305 918.104 267.373C913.112 273.286 913.098 277.938 899.679 288.156C847.148 328.311 833.949 333.549 824.701 354.43" stroke="white" stroke-width="0.635" stroke-miterlimit="10"/>
<path d="M135.681 156.625C135.681 156.625 202.402 143.354 222.936 147.228C242.776 150.976 212.383 162.832 233.513 168.88C253.407 174.628 269.919 176.209 318.18 168.651C321.882 168.066 325.719 167.525 329.727 166.842C389.535 157.475 381.654 158.886 477.98 142.519C574.153 126.201 598.294 120.841 648.3 131.482C657.702 133.437 664.131 135.914 668.013 138.954C683.862 150.921 665.759 169.233 632.501 190.96C627.254 194.412 621.547 198.013 615.399 201.67C562.107 233.653 523.908 251.106 531.857 262.298C539.588 273.123 568.237 265.952 602.87 264.385C633.871 263.029 655.664 258.692 676.499 263.257C677.735 263.559 679.107 263.904 680.614 264.292C704.593 270.471 736.474 264.446 808.518 254.186C822.391 252.238 835.092 250.406 846.486 248.646C898.278 240.646 925.858 230.753 936.509 241.334C946.806 251.503 949.899 248.046 935.445 266.053C930.724 272.054 931.475 276.458 918.192 286.721C866.578 326.578 853.074 331.915 843.572 352.615" stroke="white" stroke-width="0.635" stroke-miterlimit="10"/>
<path d="M156.256 154.963C156.256 154.963 222.536 141.748 243.241 145.479C263.115 149.04 233.47 160.742 254.482 166.653C274.547 172.257 291.229 173.696 339.149 166.424C342.851 165.839 346.688 165.298 350.678 164.708C410.145 155.627 401.771 157.373 497.026 141.353C591.839 125.388 616.268 120.022 665.85 130.625C674.963 132.585 681.546 135.013 685.428 138.053C701.141 149.976 683.344 168.188 650.563 189.674C645.316 193.126 639.762 196.678 633.614 200.334C581.105 231.977 543.212 249.33 551.314 260.473C559.198 271.248 587.676 264.221 622.309 262.653C653.022 261.303 675.103 256.96 695.955 261.432C697.345 261.684 698.564 262.078 699.935 262.423C724.374 268.453 756.56 262.329 827.857 252.224C841.729 250.275 854.413 248.536 865.654 246.826C917.258 239.063 944.362 229.411 954.554 240.141C964.545 250.409 966.891 247.107 953.455 265.047C948.851 271.185 950.808 275.286 937.355 285.692C886.524 325.208 873.137 330.682 863.382 351.201" stroke="white" stroke-width="0.635" stroke-miterlimit="10"/>
<path d="M177.673 153.378C177.673 153.378 243.376 140.173 264.251 143.761C284.16 147.136 255.263 158.684 276.31 164.408C296.392 169.919 313.245 171.214 360.841 164.135C364.39 163.6 368.228 163.059 372.218 162.468C431.614 153.761 422.61 155.799 516.641 140.175C610.384 124.557 634.948 119.234 684.277 129.656C693.39 131.616 699.973 134.044 703.872 136.991C719.45 148.87 701.824 166.94 669.655 188.227C664.56 191.63 659.006 195.181 653.011 198.788C601.132 230.139 563.698 247.344 571.935 258.531C579.82 269.306 608.28 262.372 643.066 260.755C673.643 259.361 695.572 255.067 716.73 259.44C718.119 259.692 719.338 260.087 720.863 260.382C745.607 266.313 777.964 260.046 848.802 250.089C862.675 248.141 875.493 246.446 886.717 244.829C937.98 237.351 964.76 227.892 974.646 238.721C984.178 249.138 986.082 245.891 973.529 263.721C969.196 269.946 972.054 273.843 958.736 284.293C908.823 323.512 895.283 329.036 885.411 349.417" stroke="white" stroke-width="0.635" stroke-miterlimit="10"/>
<path d="M199.668 151.781C199.668 151.781 264.794 138.588 285.84 142.033C305.92 145.265 277.499 156.57 298.564 162.201C318.817 167.569 335.688 168.771 382.807 161.934C386.356 161.399 390.329 160.902 394.319 160.311C453.527 151.84 444.011 154.307 536.971 139.03C629.643 123.758 654.631 118.474 703.265 128.77C712.243 130.686 718.826 133.114 722.725 136.061C738.168 147.896 721 165.817 689.155 186.912C684.213 190.265 678.659 193.817 672.664 197.424C621.432 228.39 584.286 245.589 592.83 256.677C600.867 267.402 629.157 260.611 663.807 258.95C694.385 257.556 716.313 253.262 737.489 257.542C738.879 257.794 740.25 258.139 741.622 258.484C766.69 264.222 799.336 257.95 869.715 248.141C883.587 246.193 896.388 244.591 907.612 242.975C958.533 235.783 984.855 226.472 994.281 237.45C1003.35 248.015 1004.66 244.873 993.13 262.636C989.067 268.949 992.69 272.599 979.355 283.142C930.224 322.02 916.649 327.73 906.676 347.881" stroke="white" stroke-width="0.635" stroke-miterlimit="10"/>
<path d="M221.918 150.365C221.918 150.365 286.314 137.233 307.683 140.486C327.646 143.58 300.125 154.682 321.225 160.126C341.513 165.307 358.537 166.46 405.333 159.815C408.881 159.28 412.701 158.832 416.692 158.242C475.694 150.1 465.684 152.902 557.42 138.021C649.02 123.096 674.144 117.856 722.372 128.021C731.35 129.937 737.797 132.321 741.696 135.268C757.004 147.059 740.007 164.837 708.773 185.734C703.832 189.087 698.431 192.589 692.436 196.196C641.986 226.821 605.282 243.965 613.826 255.053C622.016 265.729 650.152 258.987 684.785 257.42C715.074 256.031 737.138 251.782 758.485 255.919C759.874 256.17 761.246 256.515 762.618 256.86C788.145 262.45 820.808 256.084 890.575 246.474C904.447 244.525 917.248 242.924 928.454 241.4C979.17 234.539 1005.03 225.376 1014 236.502C1022.61 247.217 1023.48 244.129 1012.68 261.832C1008.89 268.233 1013.56 271.629 1000.21 282.265C951.844 320.896 938.269 326.606 928.025 346.669" stroke="white" stroke-width="0.635" stroke-miterlimit="10"/>
<path d="M244.725 149.031C244.725 149.031 308.68 135.954 330.084 139.02C350.082 141.928 323.173 152.832 344.291 158.182C364.597 163.27 381.944 164.23 428.263 157.827C431.947 157.336 435.632 156.845 439.604 156.348C498.554 148.486 487.897 151.673 578.715 137.089C669.091 122.561 694.657 117.265 742.46 127.392C751.303 129.264 757.75 131.648 761.514 134.551C776.686 146.299 759.995 163.978 729.238 184.632C724.314 187.892 719.049 191.438 713.207 194.996C663.54 225.28 627.141 242.324 635.838 253.362C644.181 263.989 672.147 257.39 706.78 255.823C736.934 254.39 758.98 250.234 780.497 254.228C781.887 254.48 783.258 254.825 784.783 255.12C810.616 260.611 843.738 254.096 912.758 244.641C926.765 242.736 939.414 241.184 950.602 239.754C1001.13 233.128 1026.52 224.208 1035.02 235.483C1043.33 246.296 1043.59 243.407 1033.82 260.949C1030.15 267.487 1035.88 270.63 1022.51 281.36C974.922 319.649 961.312 325.546 950.968 345.379" stroke="white" stroke-width="0.635" stroke-miterlimit="10"/>
<path d="M267.65 147.834C267.65 147.834 331.028 134.769 352.738 137.736C372.906 140.5 346.61 151.206 367.763 156.37C388.239 161.315 405.604 162.182 451.599 155.971C455.283 155.48 458.968 154.988 462.788 154.541C521.532 147.009 510.38 150.532 599.839 136.3C689.144 122.118 714.845 116.867 762.395 126.812C771.238 128.684 777.55 131.025 781.313 133.928C796.35 145.631 779.983 163.118 749.685 183.624C744.761 186.884 739.649 190.38 733.806 193.938C684.922 223.881 648.83 240.826 657.662 251.908C666.158 262.485 693.953 256.029 728.739 254.412C758.74 253.03 780.939 248.824 802.474 252.725C803.863 252.976 805.235 253.321 806.624 253.573C832.916 258.915 866.056 252.307 934.617 243C948.471 241.145 961.255 239.636 972.443 238.206C1022.63 231.867 1047.69 223.139 1055.76 234.469C1063.61 245.43 1063.42 242.597 1054.38 260.078C1050.98 266.704 1057.48 269.599 1044.24 280.372C997.441 318.321 983.813 324.311 973.351 344.007" stroke="white" stroke-width="0.635" stroke-miterlimit="10"/>
<path d="M290.539 146.824C290.539 146.824 353.34 133.769 375.221 136.594C395.272 139.221 369.722 149.772 391.064 154.7C411.557 159.552 429.228 160.319 474.765 154.257C478.296 153.816 482.116 153.368 485.953 152.827C544.356 145.581 532.846 149.483 621.08 135.648C709.315 121.813 735.304 116.555 782.295 126.419C791.138 128.291 797.314 130.588 801.078 133.49C815.979 145.15 799.917 162.538 770.096 182.802C765.325 186.012 760.213 189.509 754.524 193.016C706.422 222.618 670.636 239.465 679.621 250.497C688.135 260.981 715.895 254.712 750.681 253.095C780.546 251.668 802.728 247.556 824.433 251.314C825.822 251.565 827.194 251.91 828.583 252.162C855.199 257.311 888.627 250.698 956.729 241.539C970.583 239.684 983.502 238.22 994.538 236.839C1044.38 230.785 1068.99 222.206 1076.73 233.728C1084.12 244.839 1083.63 242.104 1075.18 259.481C1072.05 266.194 1079.6 268.836 1066.19 279.752C1020.31 317.404 1006.67 323.487 995.952 343.002" stroke="white" stroke-width="0.635" stroke-miterlimit="10"/>
<path d="M313.395 146C313.395 146 375.619 132.958 397.671 135.639C417.756 138.08 392.819 148.433 414.178 153.267C434.842 157.976 452.53 158.65 497.726 152.874C501.257 152.432 505.077 151.985 508.897 151.537C567.247 144.571 554.954 148.814 642.253 135.369C729.263 121.93 755.541 116.667 802.126 126.4C810.833 128.228 817.145 130.568 820.773 133.427C835.539 145.043 819.648 162.288 790.304 182.31C785.532 185.52 780.438 188.923 774.749 192.431C727.276 221.742 691.949 238.44 701.069 249.516C709.583 260 737.326 253.824 771.976 252.163C801.689 250.786 823.735 246.63 845.746 250.288C847.136 250.54 848.372 250.841 850.05 251.087C876.971 256.137 910.57 249.381 978.213 240.371C992.067 238.516 1004.83 237.101 1015.99 235.858C1065.49 230.09 1089.77 221.703 1097.05 233.374C1104.14 244.583 1103.19 241.997 1095.63 259.264C1092.77 266.065 1101.21 268.503 1087.94 279.463C1042.84 316.773 1029.03 323 1018.2 342.377" stroke="white" stroke-width="0.635" stroke-miterlimit="10"/>
<path d="M335.929 145.37C335.929 145.37 397.577 132.339 419.646 134.927C439.614 137.23 415.577 147.38 436.971 152.027C457.806 156.593 475.512 157.174 520.383 151.59C523.915 151.148 527.582 150.75 531.401 150.303C589.546 143.667 576.759 148.245 662.986 135.147C748.926 122.055 775.492 116.786 821.518 126.436C830.225 128.264 836.401 130.561 839.894 133.376C854.524 144.948 839.093 162.044 810.072 181.874C805.454 185.035 800.359 188.438 794.823 191.896C748.133 220.866 713.094 237.558 722.385 248.491C731.052 258.925 758.777 252.843 793.275 251.232C822.852 249.811 845.033 245.698 867.062 249.264C868.451 249.515 869.841 249.767 871.366 250.062C898.746 254.964 932.651 248.109 999.546 239.253C1013.4 237.398 1026.3 236.027 1037.3 234.833C1086.75 229.345 1110.42 221.157 1117.26 232.883C1123.89 244.241 1122.48 241.803 1115.67 258.915C1112.92 265.853 1122.29 267.994 1109.14 279.092C1064.82 316.061 1051.12 322.425 1040.04 341.621" stroke="white" stroke-width="0.635" stroke-miterlimit="10"/>
<path d="M357.984 144.981C357.984 144.981 419.19 132.005 441.295 134.406C461.433 136.567 438.008 146.518 459.284 151.028C480.001 155.457 498.166 155.889 542.561 150.547C546.093 150.106 549.759 149.708 553.562 149.353C611.5 143.047 598.066 148.01 683.223 135.259C767.938 122.563 794.793 117.288 840.412 126.807C848.984 128.591 855.16 130.888 858.653 133.703C873.148 145.231 857.887 162.185 829.478 181.816C824.86 184.977 819.918 188.331 814.382 191.789C768.475 220.417 733.742 237.01 743.033 247.944C751.853 258.328 779.407 252.389 813.905 250.778C843.329 249.406 865.511 245.294 887.71 248.716C889.099 248.968 890.489 249.219 892.013 249.515C919.853 254.268 953.775 247.319 1020.21 238.612C1034.2 236.801 1046.95 235.479 1058.09 234.329C1107.2 229.127 1130.54 221.131 1136.92 233.006C1143.09 244.513 1141.38 242.174 1135.29 259.225C1132.82 266.251 1143.24 268.139 1129.93 279.285C1086.4 315.914 1072.68 322.371 1061.48 341.43" stroke="white" stroke-width="0.635" stroke-miterlimit="10"/>
<path d="M379.564 144.835C379.564 144.835 440.04 131.919 462.604 134.172C482.624 136.195 459.964 145.899 481.411 150.266C502.299 154.552 520.617 154.935 564.553 149.742C568.084 149.3 571.734 148.995 575.553 148.548C633.439 142.521 619.358 147.869 703.308 135.421C786.953 123.072 814.078 117.885 859.291 127.272C867.863 129.056 873.904 131.309 877.397 134.124C891.603 145.658 876.801 162.463 848.869 181.852C844.404 184.964 839.462 188.317 833.926 191.776C788.666 220.019 754.374 236.557 763.801 247.534C772.774 257.869 800.157 252.073 834.808 250.412C864.096 248.997 886.414 244.928 908.631 248.257C910.173 248.459 911.409 248.76 912.799 249.012C941.097 253.617 975.173 246.618 1041.15 238.06C1055.14 236.249 1067.87 235.02 1079.01 233.87C1127.78 228.954 1150.66 221.107 1156.72 233.174C1162.58 244.779 1160.41 242.59 1155.07 259.486C1152.87 266.6 1164.19 268.284 1150.87 279.524C1107.96 315.861 1094.36 322.455 1083.06 341.284" stroke="white" stroke-width="0.635" stroke-miterlimit="10"/>
<path d="M400.357 145.028C400.357 145.028 460.256 132.124 482.99 134.234C503.046 136.071 481.133 145.62 502.615 149.801C523.673 153.943 542.009 154.233 585.468 149.282C589 148.84 592.649 148.535 596.451 148.181C653.996 142.44 639.556 148.167 722.435 136.066C805.009 124.064 832.422 118.871 877.076 128.176C885.513 129.917 891.554 132.17 895.046 134.985C909.117 146.475 894.639 163.087 867.166 182.328C862.701 185.439 857.912 188.743 852.529 192.152C808.051 220.054 774.066 236.493 783.645 247.421C792.771 257.706 819.984 252.053 854.635 250.392C883.635 248.982 906.088 244.958 928.475 248.144C930.018 248.346 931.254 248.647 932.796 248.849C961.265 253.311 995.782 246.257 1061.16 237.803C1075.15 235.992 1088.02 234.808 1098.85 233.757C1147.28 229.127 1169.84 221.472 1175.31 233.643C1180.84 245.442 1178.23 243.307 1173.62 260.143C1171.69 267.344 1183.77 268.78 1170.72 280.108C1128.6 316.104 1114.98 322.791 1103.27 341.489" stroke="white" stroke-width="0.635" stroke-miterlimit="10"/>
<path d="M420.524 145.514C420.524 145.514 479.847 132.621 502.751 134.588C522.689 136.288 501.677 145.633 523.041 149.677C544.117 153.726 562.623 153.872 605.759 149.114C609.273 148.765 612.94 148.367 616.589 148.063C673.928 142.652 658.993 148.714 740.649 137.009C821.998 125.403 849.7 120.204 894.101 129.329C902.537 131.069 908.443 133.278 911.936 136.093C925.871 147.539 911.699 164.053 884.702 183.051C880.39 186.113 875.601 189.417 870.218 192.826C826.37 220.437 792.844 236.727 802.559 247.699C811.838 257.935 838.88 252.424 873.395 250.719C902.396 249.31 924.695 245.335 947.253 248.378C948.796 248.58 950.032 248.881 951.574 249.083C980.502 253.396 1015.04 246.249 1079.96 237.944C1093.95 236.133 1106.66 234.998 1117.76 234.035C1165.85 229.69 1188.09 222.228 1193.25 234.499C1198.33 246.445 1195.41 244.41 1191.39 261.141C1189.73 268.43 1202.87 269.613 1189.51 281.039C1148.17 316.694 1134.52 323.569 1122.71 342.035" stroke="white" stroke-width="0.635" stroke-miterlimit="10"/>
<path d="M439.331 146.352C439.331 146.352 497.924 133.52 521.152 135.295C541.26 136.851 520.725 145.955 542.259 149.855C563.506 153.762 582.318 153.809 624.977 149.293C628.491 148.944 632.14 148.639 635.807 148.242C693.093 143.111 677.376 149.514 758.096 138.199C838.239 126.896 866.212 121.786 910.207 130.778C918.507 132.475 924.413 134.684 927.77 137.455C941.571 148.858 927.569 165.228 901.184 184.028C896.872 187.09 892.236 190.345 887.006 193.704C843.941 220.974 810.856 237.209 820.588 248.087C829.732 258.279 857.045 252.856 891.407 251.201C920.119 249.797 942.571 245.772 965.283 248.766C966.825 248.968 968.214 249.22 969.604 249.472C998.991 253.636 1033.83 246.39 1098.01 238.239C1112 236.428 1124.69 235.387 1135.79 234.423C1183.69 230.315 1205.45 223.094 1210.15 235.514C1214.77 247.609 1211.55 245.673 1208.28 262.25C1206.74 269.676 1220.93 270.605 1207.71 282.076C1167.15 317.39 1153.48 324.357 1141.55 342.687" stroke="white" stroke-width="0.635" stroke-miterlimit="10"/>
<path d="M457.202 147.581C457.202 147.581 515.217 134.761 538.616 136.392C558.607 137.811 538.972 146.711 560.388 150.474C581.805 154.238 600.635 154.192 642.971 149.868C646.485 149.519 650.134 149.215 653.783 148.91C710.863 144.109 694.652 150.848 774.166 139.836C853.085 128.929 881.499 123.763 924.934 132.674C933.235 134.37 939.141 136.579 942.363 139.307C956.028 150.665 942.485 166.887 916.424 185.495C912.265 188.508 907.629 191.762 902.399 195.121C860.116 222.05 827.184 238.236 837.205 249.108C846.501 259.251 873.644 253.971 908.159 252.266C936.871 250.862 959.171 246.887 982.052 249.738C983.595 249.94 984.984 250.191 986.526 250.393C1016.37 254.409 1051.23 247.07 1114.79 239.117C1128.92 237.35 1141.62 236.308 1152.56 235.395C1200.12 231.572 1221.27 224.55 1225.67 237.068C1229.98 249.263 1226.29 247.475 1223.76 263.991C1222.62 271.548 1237.44 272.186 1224.34 283.794C1184.41 318.816 1171.01 325.872 1158.83 344.02" stroke="white" stroke-width="0.635" stroke-miterlimit="10"/>
<path d="M473.717 149.162C473.717 149.162 531.155 136.353 554.86 137.886C574.886 139.118 555.998 147.864 577.45 151.44C599.038 155.061 618.021 154.965 659.898 150.79C663.411 150.441 666.907 150.186 670.557 149.882C727.584 145.361 710.726 152.484 789.015 141.869C866.863 131.309 895.413 126.187 938.442 134.966C946.608 136.619 952.513 138.828 955.735 141.555C969.265 152.87 955.892 168.948 930.443 187.358C926.284 190.371 921.801 193.576 916.724 196.886C875.089 223.429 842.598 239.56 852.772 250.383C862.221 260.476 889.058 255.295 923.709 253.634C952.132 252.236 974.72 248.255 997.619 251.012C999.162 251.214 1000.55 251.466 1002.09 251.668C1032.4 255.535 1067.41 248.146 1130.51 240.342C1144.49 238.624 1157.32 237.627 1168.25 236.807C1215.46 233.27 1236.29 226.44 1240.38 239.057C1244.23 251.4 1240.38 249.756 1238.45 266.073C1237.59 273.719 1253.46 274.103 1240.34 285.804C1201.19 320.486 1187.63 327.684 1175.33 345.695" stroke="white" stroke-width="0.635" stroke-miterlimit="10"/>
<path d="M488.717 151.145C488.717 151.145 545.426 138.398 569.454 139.737C589.362 140.833 571.239 149.331 592.709 152.814C614.314 156.341 633.467 156.103 674.868 152.169C678.381 151.821 681.878 151.566 685.509 151.354C742.331 147.163 724.979 154.622 802.197 144.353C878.974 134.14 907.812 129.012 950.282 137.709C958.448 139.362 964.218 141.527 967.44 144.254C980.834 155.525 967.767 171.505 942.795 189.673C938.789 192.636 934.306 195.841 929.229 199.151C888.376 225.354 856.191 241.385 866.501 252.252C876.103 262.295 902.769 257.257 937.42 255.596C965.843 254.198 988.278 250.267 1011.35 252.881C1012.76 253.039 1014.14 253.291 1015.69 253.493C1046.45 257.212 1081.61 249.773 1144.13 242.074C1158.1 240.356 1170.93 239.359 1181.84 238.632C1228.72 235.381 1249.22 228.743 1252.85 241.509C1256.24 254.001 1252.08 252.455 1250.89 268.712C1250.29 276.445 1267.07 276.625 1253.79 288.376C1215.43 322.717 1201.98 330.052 1189.43 347.882" stroke="white" stroke-width="0.635" stroke-miterlimit="10"/>
<path d="M502.336 153.574C502.336 153.574 558.604 140.881 582.667 142.034C602.593 143.037 585.235 151.286 606.74 154.583C628.38 157.924 647.839 157.586 688.763 153.894C692.277 153.546 695.755 153.384 699.405 153.08C756.021 149.218 738.174 157.012 814.321 147.09C889.875 137.273 919.001 132.14 961.2 140.749C969.365 142.402 975 144.523 978.087 147.207C991.21 158.39 978.603 174.221 953.954 192.197C949.948 195.16 945.618 198.315 940.405 201.581C900.182 227.492 868.456 243.375 878.919 254.192C888.674 264.186 915.17 259.291 949.685 257.586C977.82 256.194 1000.39 252.306 1023.63 254.778C1025.04 254.936 1026.43 255.188 1028.12 255.34C1059.21 258.866 1094.53 251.378 1156.58 243.828C1170.55 242.11 1183.36 241.206 1194.28 240.479C1240.81 237.514 1260.99 231.068 1264.03 243.939C1267.11 256.53 1262.64 255.083 1261.89 271.285C1261.57 279.106 1279.11 279.039 1266.1 290.877C1228.53 324.876 1214.9 332.355 1202.39 349.998" stroke="white" stroke-width="0.635" stroke-miterlimit="10"/>
<path d="M514.003 156.46C514.003 156.46 569.694 143.779 593.928 144.789C613.889 145.604 597.279 153.7 618.819 156.81C640.63 160.007 660.242 159.62 700.707 156.077C704.067 155.778 707.699 155.567 711.331 155.356C767.894 151.774 749.265 159.91 824.323 150.428C898.806 140.957 928.221 135.818 969.86 144.346C977.89 145.955 983.525 148.076 986.611 150.759C999.599 161.899 987.298 177.631 963.126 195.364C959.272 198.278 954.943 201.433 949.883 204.65C910.442 230.22 879.023 246.003 889.621 256.865C899.376 266.859 925.854 262.057 960.522 260.303C988.369 258.916 1011.23 255.022 1034.49 257.401C1035.89 257.559 1037.43 257.761 1038.98 257.963C1070.52 261.341 1106.15 253.753 1167.45 246.357C1181.56 244.683 1194.22 243.829 1205.27 243.145C1251.61 240.417 1271.18 234.17 1273.89 247.233C1276.52 259.972 1271.88 258.669 1271.74 274.672C1271.82 282.624 1290.28 282.26 1277.11 294.241C1240.16 327.949 1226.81 335.515 1214.04 352.977" stroke="white" stroke-width="0.635" stroke-miterlimit="10"/>
<path d="M523.397 159.996C523.397 159.996 578.358 147.375 602.915 148.193C622.758 148.871 607.066 156.67 628.47 159.736C650.299 162.84 670.082 162.31 710.358 159.003C713.719 158.704 717.351 158.493 720.829 158.331C777.187 155.079 758.063 163.55 831.916 154.371C905.174 145.297 934.877 140.152 976.264 148.498C984.294 150.107 989.793 152.185 993.033 154.819C1005.88 165.915 993.754 181.504 970.194 199.039C966.341 201.952 962.164 205.058 957.104 208.275C918.446 233.504 887.315 249.282 898.084 260C907.992 269.944 934.452 265.236 968.968 263.531C996.814 262.144 1019.38 258.257 1042.95 260.536C1044.36 260.694 1045.9 260.897 1047.44 261.099C1079.45 264.328 1115.22 256.691 1176.07 249.443C1190.18 247.769 1202.84 246.915 1213.71 246.374C1259.72 243.931 1278.96 237.877 1281.23 250.995C1283.4 263.883 1278.46 262.679 1279.05 278.621C1279.25 286.711 1298.62 286.049 1285.58 298.074C1249.28 331.397 1236.05 339.1 1223.01 356.475" stroke="white" stroke-width="0.635" stroke-miterlimit="10"/>
<path d="M530.375 164.137C530.375 164.137 584.759 151.529 609.623 152.247C629.483 152.832 614.556 160.383 635.996 163.262C657.995 166.223 677.931 165.644 717.748 162.486C721.245 162.231 724.723 162.069 728.202 161.907C784.506 158.935 764.736 167.791 837.517 158.959C909.704 150.231 939.696 145.081 980.523 153.345C988.418 154.91 993.917 156.988 997.157 159.622C1009.87 170.674 998.202 186.114 974.965 203.457C971.13 206.277 967.088 209.427 962.182 212.594C924.171 237.438 893.481 253.161 904.385 263.923C914.311 273.774 940.736 269.252 975.251 267.547C1002.81 266.166 1025.52 262.322 1049.25 264.459C1050.81 264.567 1052.2 264.819 1053.89 264.972C1086.36 268.052 1122.15 260.322 1182.54 253.223C1196.65 251.549 1209.29 250.788 1220.17 250.247C1265.7 248.046 1284.75 242.228 1286.56 255.495C1288.27 268.532 1283.16 267.47 1284.21 283.264C1284.68 291.441 1304.95 290.576 1291.9 302.694C1256.38 335.676 1243.11 343.566 1229.97 360.71" stroke="white" stroke-width="0.635" stroke-miterlimit="10"/>
<path d="M536.414 169.461C536.414 169.461 590.069 156.913 615.256 157.439C634.999 157.886 620.972 165.233 642.294 167.975C664.463 170.794 684.552 170.165 723.758 167.205C727.254 166.95 730.732 166.788 734.211 166.626C790.31 163.984 770.045 173.175 841.603 164.739C912.719 156.358 942.846 151.252 983.267 159.385C991.162 160.95 996.661 163.027 999.765 165.617C1012.35 176.625 1000.85 191.923 978.221 209.068C974.385 211.888 970.497 214.988 965.59 218.155C928.362 242.658 897.978 258.282 909.035 268.994C919.114 278.796 945.369 274.417 979.748 272.668C1007.31 271.287 1030.01 267.444 1053.76 269.486C1055.32 269.595 1056.71 269.847 1058.27 269.956C1091.2 272.887 1127.14 265.108 1186.94 258.113C1201.04 256.439 1213.82 255.722 1224.68 255.275C1269.87 253.36 1288.6 247.734 1289.95 261.15C1291.36 274.285 1286.07 273.367 1287.71 289.056C1288.46 297.321 1309.79 296.202 1296.71 308.414C1261.82 341.104 1248.69 349.038 1235.43 366.045" stroke="white" stroke-width="0.635" stroke-miterlimit="10"/>
<path d="M541.359 175.223C541.359 175.223 594.437 162.686 619.795 163.07C639.572 163.33 626.158 170.479 647.65 173.078C669.99 175.754 690.25 174.982 728.979 172.264C732.475 172.009 735.8 171.897 739.279 171.735C795.172 169.422 774.26 178.998 844.9 170.859C914.656 162.831 945.207 157.763 985.222 165.764C992.981 167.285 998.481 169.363 1001.45 171.909C1013.9 182.873 1002.7 198.072 980.552 214.975C976.87 217.745 972.846 220.801 968.228 223.963C931.629 248.174 901.704 263.649 912.896 274.406C923.128 284.158 949.213 279.922 983.745 278.124C1011.01 276.748 1033.86 272.948 1057.78 274.848C1059.34 274.957 1060.88 275.159 1062.29 275.318C1095.67 278.101 1131.77 270.272 1190.97 263.382C1205.21 261.752 1217.84 261.084 1228.7 260.637C1273.69 258.958 1291.81 253.531 1292.86 267.045C1293.81 280.33 1288.21 279.51 1290.45 295.094C1291.6 303.49 1313.56 302.08 1300.6 314.43C1266.49 346.779 1253.48 354.85 1239.97 371.675" stroke="white" stroke-width="0.635" stroke-miterlimit="10"/>
<path d="M545.004 181.058C545.004 181.058 597.487 168.627 622.88 168.823C642.676 168.991 630.026 175.892 651.553 178.304C674.064 180.837 694.477 180.015 732.747 177.446C736.09 177.24 739.704 177.122 743.029 177.01C798.87 174.978 777.175 184.895 846.879 177.146C915.565 169.465 946.54 164.435 985.995 172.354C993.754 173.875 999.118 175.909 1002.09 178.455C1014.4 189.375 1003.53 204.381 981.837 221.136C978.154 223.906 974.284 226.913 969.666 230.074C933.849 253.945 904.231 269.321 915.576 280.028C925.808 289.78 951.874 285.637 986.407 283.839C1013.68 282.464 1036.36 278.713 1060.46 280.47C1062.02 280.579 1063.56 280.781 1065.12 280.89C1098.83 283.481 1135.37 275.596 1193.95 268.905C1208.2 267.275 1220.67 266.656 1231.65 266.347C1276.3 264.954 1294.1 259.718 1294.69 273.382C1295.17 286.815 1289.56 286.088 1292.24 301.617C1293.66 310.101 1316.52 308.487 1303.57 320.837C1269.95 352.85 1257.06 361.059 1243.29 377.703" stroke="white" stroke-width="0.635" stroke-miterlimit="10"/>
<path d="M547.915 186.955C547.915 186.955 599.668 174.584 625.385 174.588C645.062 174.618 633.313 181.316 654.723 183.591C677.251 186.03 697.834 185.066 735.781 182.689C739.124 182.483 742.585 182.415 746.063 182.253C801.698 180.55 779.509 190.803 847.854 183.407C915.315 176.122 946.579 171.086 985.628 178.873C993.252 180.351 998.616 182.385 1001.58 184.931C1013.76 195.807 1003.19 210.714 981.981 227.227C978.452 229.948 974.581 232.954 969.963 236.115C934.794 259.601 905.617 274.922 917.097 285.673C927.482 295.375 953.531 291.326 987.911 289.577C1014.89 288.208 1037.87 284.452 1061.98 286.115C1063.54 286.224 1065.08 286.426 1066.64 286.535C1100.81 288.977 1137.37 280.999 1195.49 274.456C1209.58 272.876 1222.34 272.252 1233.17 271.992C1277.48 270.884 1294.96 265.842 1295.08 279.654C1295.27 293.186 1289.33 292.652 1292.62 307.983C1294.45 316.598 1318.09 314.643 1305.1 327.179C1272.27 358.852 1259.49 367.197 1245.47 383.661" stroke="white" stroke-width="0.635" stroke-miterlimit="10"/>
<path d="M549.54 192.831C549.54 192.831 600.716 180.471 626.739 180.376C646.298 180.269 635.314 186.719 656.894 188.851C679.593 191.147 700.329 190.133 737.817 187.905C741.16 187.699 744.621 187.631 748.082 187.563C803.664 186.14 780.828 196.777 848.101 189.728C914.492 182.79 946.044 177.748 984.687 185.404C992.31 186.882 997.539 188.872 1000.51 191.418C1012.55 202.25 1002.15 217.014 981.552 233.329C978.022 236.05 974.305 239.007 969.84 242.118C935.453 265.263 906.564 280.578 918.216 291.186C928.754 300.839 954.632 296.933 989.012 295.184C1015.86 293.771 1038.82 290.108 1062.95 291.678C1064.51 291.787 1065.91 291.945 1067.61 292.098C1102.23 294.391 1138.94 286.364 1196.48 279.926C1210.57 278.345 1223.31 277.815 1234.13 277.555C1278.13 276.64 1295.26 271.883 1294.79 285.8C1294.51 299.48 1288.43 298.996 1292.16 314.271C1294.26 322.975 1318.8 320.816 1305.79 333.445C1273.6 364.733 1260.79 373.265 1246.81 389.542" stroke="white" stroke-width="0.635" stroke-miterlimit="10"/>
<path d="M550.568 198.81C550.568 198.81 601.015 186.512 627.361 186.224C646.938 186.024 636.719 192.226 658.182 194.221C681.051 196.374 701.94 195.311 738.951 193.324C742.294 193.119 745.602 193.1 749.063 193.032C804.575 191.982 781.11 202.911 847.312 196.209C912.478 189.666 944.319 184.619 982.555 192.144C990.026 193.671 995.272 195.567 998.105 198.07C1010.01 208.859 1000.07 223.474 979.661 239.552C976.285 242.223 972.567 245.181 967.967 248.248C934.363 271.052 905.78 286.268 917.567 296.92C928.258 306.523 953.965 302.76 988.363 300.918C1015.06 299.554 1038.03 295.798 1062.31 297.319C1063.87 297.427 1065.28 297.586 1066.99 297.645C1102.23 299.74 1138.94 291.713 1195.73 285.429C1209.95 283.892 1222.56 283.318 1233.5 283.195C1277.15 282.566 1293.83 277.957 1293.19 292.017C1292.45 305.846 1286.19 305.505 1290.52 320.676C1292.89 329.467 1318.2 327.06 1305.32 339.733C1273.77 370.73 1261.23 379.35 1246.99 395.445" stroke="white" stroke-width="0.635" stroke-miterlimit="10"/>
<path d="M550.903 204.665C550.903 204.665 600.62 192.427 627.29 191.947C646.749 191.61 637.43 197.608 658.928 199.416C681.832 201.383 703.163 200.264 739.562 198.476C743.04 198.314 746.348 198.295 749.656 198.276C804.962 197.557 780.867 208.777 845.981 202.515C910.077 196.319 942.205 191.266 979.883 198.709C987.218 200.192 992.464 202.089 995.297 204.591C1007.07 215.336 997.301 229.808 977.501 245.688C974.124 248.36 970.559 251.267 966.112 254.286C933.138 276.798 905.014 291.865 916.953 302.467C927.662 311.977 953.335 308.401 987.732 306.559C1014.29 305.151 1037.25 301.488 1061.7 302.866C1063.26 302.975 1064.82 303.084 1066.38 303.192C1101.94 305.095 1138.94 297.062 1195.27 290.927C1209.49 289.39 1222.08 288.909 1232.87 288.836C1276.18 288.493 1292.53 284.077 1291.43 298.285C1290.24 312.263 1283.96 312.015 1288.75 327.037C1291.68 335.91 1317.75 333.256 1304.7 346.072C1273.93 376.727 1261.37 385.441 1246.86 401.449" stroke="white" stroke-width="0.635" stroke-miterlimit="10"/>
<path d="M550.66 210.53C550.66 210.53 599.935 198.348 626.64 197.681C645.982 197.206 637.581 202.907 658.943 204.672C682.018 206.495 703.366 205.283 739.442 203.687C742.92 203.526 746.228 203.507 749.536 203.488C804.789 203.049 780.047 214.654 844.09 208.738C906.979 202.846 939.378 197.88 976.65 205.191C983.985 206.675 989.231 208.571 991.929 211.03C1003.41 221.78 994.103 236.104 974.779 251.742C971.556 254.364 967.991 257.272 963.544 260.29C931.217 282.417 903.534 297.429 915.609 308.075C926.318 317.585 951.837 314.058 986.37 312.26C1012.77 310.902 1035.73 307.239 1060.36 308.474C1061.92 308.583 1063.48 308.692 1065.04 308.8C1101.05 310.555 1138.21 302.472 1193.94 296.442C1208.16 294.905 1220.74 294.517 1231.53 294.444C1274.51 294.293 1290.52 290.163 1288.83 304.476C1287.33 318.553 1280.88 318.448 1286.11 333.415C1289.31 342.375 1316.15 339.473 1303.37 352.377C1273.09 382.697 1260.79 391.592 1246.18 407.369" stroke="white" stroke-width="0.635" stroke-miterlimit="10"/>
<path d="M550.282 216.352C550.282 216.352 598.828 204.23 625.992 203.415C645.504 202.797 637.715 208.3 659.112 209.878C682.358 211.559 703.859 210.297 739.476 208.85C742.801 208.737 746.109 208.719 749.417 208.7C804.465 208.59 779.228 220.531 842.065 214.918C903.73 209.422 936.57 204.401 973.418 211.674C980.618 213.114 985.864 215.01 988.562 217.469C999.907 228.175 990.924 242.307 972.059 257.796C968.836 260.418 965.424 263.276 961.129 266.245C929.585 288.031 902.208 302.944 914.437 313.541C925.298 323.001 950.647 319.617 985.18 317.819C1011.45 316.417 1034.54 312.798 1059.18 313.939C1060.74 314.048 1062.3 314.157 1064.02 314.216C1100.49 315.822 1137.67 307.646 1192.94 301.764C1207.16 300.227 1219.74 299.84 1230.64 299.903C1273.29 300.038 1288.84 296.057 1286.98 310.513C1285.02 324.738 1278.26 324.732 1284.09 339.595C1287.69 348.687 1315.29 345.537 1302.5 358.534C1273.01 388.513 1260.68 397.501 1245.95 413.141" stroke="white" stroke-width="0.635" stroke-miterlimit="10"/>
<path d="M549.345 222.091C549.345 222.091 597.161 210.03 624.648 209.023C644.043 208.268 637.154 213.567 658.587 214.958C682.003 216.496 703.658 215.184 738.662 213.935C741.987 213.823 745.431 213.848 748.586 213.879C803.427 214.099 777.697 226.375 839.309 221.158C899.903 216.009 932.879 211.032 969.321 218.174C976.52 219.613 981.631 221.466 984.329 223.924C995.539 234.587 986.862 248.619 968.474 263.867C965.403 266.439 961.992 269.297 957.697 272.266C926.935 293.711 899.712 308.575 912.228 319.165C923.243 328.576 948.574 325.286 983.107 323.488C1009.22 322.135 1032.32 318.516 1057.13 319.515C1058.84 319.574 1060.25 319.732 1061.96 319.791C1098.92 321.155 1136.22 313.023 1190.9 307.246C1205.26 305.753 1217.68 305.415 1228.43 305.528C1270.74 305.949 1285.96 302.16 1283.64 316.765C1281.22 331.139 1274.46 331.226 1280.87 345.983C1284.75 355.163 1313.11 351.766 1300.46 364.807C1271.46 394.451 1259.4 403.526 1244.56 419.029" stroke="white" stroke-width="0.635" stroke-miterlimit="10"/>
<path d="M548.422 227.737C548.422 227.737 595.797 215.732 623.319 214.537C642.731 213.689 636.472 218.696 657.923 219.994C681.357 221.439 703.317 220.028 737.862 218.928C741.188 218.816 744.478 218.89 747.633 218.921C802.404 219.514 775.756 232.087 836.586 227.212C895.956 222.459 929.373 217.427 965.255 224.486C972.32 225.882 977.43 227.735 979.993 230.149C991.067 240.768 982.561 254.658 964.785 269.707C961.714 272.279 958.455 275.088 954.161 278.057C924.046 299.117 897.4 313.969 909.781 324.516C920.948 333.877 946.109 330.73 980.507 328.888C1006.49 327.491 1029.56 323.966 1054.55 324.822C1056.26 324.881 1057.67 325.039 1059.24 325.054C1096.66 326.269 1134.27 318.038 1188.33 312.459C1202.7 310.967 1215.25 310.672 1225.85 310.835C1267.83 311.448 1282.72 307.945 1279.8 322.654C1276.92 337.177 1270.14 337.358 1276.86 352.016C1281.14 361.327 1310.43 357.633 1297.6 370.817C1269.24 400.076 1257.29 409.382 1242.19 424.704" stroke="white" stroke-width="0.635" stroke-miterlimit="10"/>
<path d="M547.523 233.29C547.523 233.29 594.167 221.346 622.014 219.959C641.308 218.973 635.949 223.777 657.435 224.888C681.039 226.189 703.152 224.73 737.374 223.822C740.699 223.709 743.99 223.784 747.28 223.859C801.999 224.732 774.703 237.69 834.462 233.161C892.761 228.755 926.314 223.767 961.943 230.645C969.007 232.041 974.135 233.8 976.545 236.264C987.484 246.839 979.436 260.58 961.984 275.437C959.066 277.96 955.808 280.769 951.666 283.688C922.181 304.457 895.993 319.16 908.663 329.701C919.983 339.013 944.974 336.008 979.371 334.166C1005.06 332.775 1028.29 329.2 1053.43 330.007C1055.14 330.066 1056.7 330.175 1058.28 330.19C1096.15 331.257 1133.92 322.976 1187.39 317.502C1201.75 316.009 1214.15 315.764 1225.02 316.015C1266.66 316.914 1281.22 313.603 1277.85 328.461C1274.66 343.082 1267.71 343.406 1274.89 357.916C1279.44 367.315 1309.49 363.373 1296.93 376.644C1269.21 405.612 1257.39 414.962 1242.18 430.146" stroke="white" stroke-width="0.635" stroke-miterlimit="10"/>
<path d="M546.81 238.607C546.81 238.607 592.86 226.767 620.895 225.144C640.206 224.065 635.766 228.572 656.98 229.595C680.756 230.754 702.886 229.201 736.784 228.485C740.245 228.417 743.383 228.541 746.538 228.571C801.051 229.775 773.261 243.068 831.795 238.936C888.87 234.925 922.712 229.931 957.934 236.678C964.863 238.03 969.992 239.789 972.401 242.254C983.205 252.785 975.328 266.383 958.487 281.042C955.723 283.515 952.464 286.323 948.323 289.243C919.62 309.67 893.738 324.275 906.408 334.816C917.593 344.084 942.701 341.216 977.099 339.375C1002.79 337.984 1025.87 334.458 1051.17 335.122C1052.75 335.137 1054.45 335.29 1056.02 335.305C1094.37 336.129 1132.27 327.893 1185.15 322.523C1199.36 321.08 1211.9 320.879 1222.77 321.129C1264.22 322.265 1278.17 319.152 1274.62 334.153C1270.98 348.923 1264 349.34 1271.63 363.795C1276.74 373.276 1307.4 369.136 1294.69 382.457C1267.61 411.039 1255.9 420.62 1240.58 435.574" stroke="white" stroke-width="0.635" stroke-miterlimit="10"/>
<path d="M546.404 243.825C546.404 243.825 591.724 232.046 620.218 230.275C639.412 229.058 635.736 233.317 657.121 234.198C681.067 235.213 703.351 233.611 736.79 233.044C740.251 232.975 743.388 233.099 746.525 233.224C800.968 234.8 772.548 248.385 829.877 244.556C885.745 240.848 920.011 235.892 954.674 242.557C961.603 243.909 966.596 245.625 969.005 248.089C979.673 258.576 972.103 272.075 955.739 286.492C952.974 288.965 949.868 291.724 945.88 294.594C917.825 314.637 892.231 329.236 905.342 339.722C916.68 348.94 941.618 346.215 976.168 344.324C1001.57 342.939 1024.78 339.457 1050.26 339.978C1051.84 339.993 1053.4 340.102 1055.11 340.161C1093.92 340.837 1131.97 332.55 1184.25 327.286C1198.6 325.886 1211.14 325.685 1221.84 326.079C1262.81 327.456 1276.57 324.58 1272.43 339.685C1268.33 354.604 1261.19 355.164 1269.27 369.47C1274.65 379.039 1306.08 374.651 1293.64 388.06C1267.19 416.35 1255.61 425.975 1240.17 440.792" stroke="white" stroke-width="0.635" stroke-miterlimit="10"/>
<path d="M546.316 248.85C546.316 248.85 591.194 237.126 619.723 235.168C638.935 233.858 636.024 237.869 657.444 238.563C681.425 239.392 703.997 237.784 736.824 237.415C740.132 237.396 743.27 237.52 746.56 237.595C800.797 239.501 771.748 253.377 827.988 249.988C882.632 246.677 917.186 241.715 951.443 248.249C958.236 249.557 963.365 251.316 965.639 253.736C976.171 264.18 969.06 277.53 952.884 291.711C950.272 294.135 947.031 296.85 943.043 299.719C915.77 319.421 890.483 333.921 903.594 344.407C915.085 353.576 940.005 350.944 974.402 349.103C999.806 347.717 1023.02 344.236 1048.51 344.663C1050.09 344.678 1051.65 344.787 1053.51 344.797C1092.65 345.28 1130.99 336.988 1182.68 331.828C1197.02 330.429 1209.4 330.277 1220.24 330.715C1261.03 332.328 1274.31 329.694 1269.71 344.948C1265.31 359.966 1257.99 360.669 1266.67 374.87C1272.45 384.57 1304.8 379.885 1292.19 393.437C1266.24 421.392 1255.06 431.148 1239.09 445.79" stroke="white" stroke-width="0.635" stroke-miterlimit="10"/>
<path d="M546.844 253.676C546.844 253.676 590.993 242.014 619.845 239.863C638.939 238.416 636.946 242.13 658.231 242.78C682.383 243.466 705.108 241.808 737.476 241.588C740.784 241.569 744.057 241.737 747.194 241.861C801.225 244.097 771.682 258.309 826.851 255.266C880.424 252.302 915.267 247.335 949.1 253.83C955.893 255.138 960.886 256.853 963.025 259.23C973.422 269.63 966.481 282.837 950.917 296.819C948.306 299.243 945.217 301.909 941.382 304.729C914.739 324.139 889.91 338.49 903.31 348.971C914.954 358.09 939.703 355.601 973.965 353.716C999.08 352.336 1022.43 348.898 1048.09 349.183C1049.67 349.198 1051.38 349.257 1052.96 349.273C1092.7 349.558 1131.05 341.266 1182.27 336.255C1196.62 334.855 1209.14 334.747 1219.82 335.234C1260.13 337.09 1273.23 334.692 1268.32 350.045C1263.46 365.212 1255.99 365.964 1265.1 380.11C1271.32 389.848 1304.27 384.965 1291.8 398.561C1266.49 426.131 1255.28 436.074 1239.34 450.529" stroke="white" stroke-width="0.635" stroke-miterlimit="10"/>
<path d="M547.986 258.306C547.986 258.306 591.541 246.748 620.428 244.41C639.539 242.87 638.312 246.336 659.632 246.799C683.954 247.343 706.832 245.635 738.741 245.563C742.049 245.545 745.322 245.713 748.306 245.886C802.267 248.496 772.094 262.999 826.192 260.303C878.695 257.685 913.808 252.806 947.099 259.126C953.893 260.434 958.75 262.105 960.889 264.482C971.15 274.838 964.515 287.946 949.428 301.687C946.834 304.017 943.882 306.727 940.046 309.547C914.05 328.572 889.799 342.912 903.063 353.348C914.707 362.468 939.438 360.072 973.7 358.187C998.816 356.807 1022.01 353.419 1047.84 353.56C1049.42 353.576 1051.14 353.635 1052.71 353.65C1092.92 353.787 1131.27 345.402 1181.89 340.588C1196.24 339.189 1208.74 339.175 1219.56 339.705C1259.68 341.797 1272.16 339.597 1266.8 355.099C1261.47 370.414 1253.99 371.26 1263.55 385.351C1270.16 395.221 1303.89 390.09 1291.4 403.779C1266.72 431.058 1255.78 441.088 1239.59 455.362" stroke="white" stroke-width="0.635" stroke-miterlimit="10"/>
<path d="M550.044 262.637C550.044 262.637 592.868 251.14 622.079 248.61C641.208 246.977 640.746 250.195 661.948 250.521C686.441 250.921 709.472 249.164 741.057 249.285C744.365 249.266 747.485 249.484 750.469 249.657C804.224 252.597 773.269 267.441 826.431 265.136C877.574 262.87 913.264 257.98 945.996 264.217C952.654 265.481 957.512 267.153 959.803 269.48C969.93 279.792 963.618 292.708 948.99 306.3C946.396 308.63 943.596 311.29 939.761 314.11C914.547 332.795 890.602 347.035 904.154 357.466C915.952 366.536 940.513 364.284 974.928 362.349C999.754 360.975 1023.24 357.581 1049.09 357.629C1050.67 357.644 1052.38 357.703 1053.96 357.719C1094.64 357.613 1133.13 349.272 1183.15 344.563C1197.63 343.208 1210 343.15 1220.65 343.823C1260.29 346.157 1272.59 344.193 1266.77 359.844C1260.98 375.308 1253.48 376.247 1263.5 390.189C1270.67 400.141 1304.87 394.768 1292.65 408.545C1268.62 435.439 1257.65 445.656 1241.49 459.743" stroke="white" stroke-width="0.635" stroke-miterlimit="10"/>
<path d="M553.154 266.716C553.154 266.716 595.384 255.324 624.919 252.601C643.93 250.83 644.232 253.801 665.605 253.984C690.268 254.242 713.452 252.435 744.579 252.704C748.022 252.729 751.142 252.947 754.126 253.121C807.829 256.34 776.226 271.569 828.182 269.567C878.254 267.648 914.079 262.801 946.558 268.858C953.216 270.122 957.938 271.75 960.23 274.077C970.221 284.345 964.215 297.162 950.064 310.512C947.623 312.793 944.823 315.453 941.141 318.223C916.71 336.567 892.917 350.758 906.623 361.139C918.437 370.115 942.963 368.05 977.378 366.115C1002.21 364.741 1025.4 361.353 1051.56 361.301C1053.14 361.317 1054.85 361.376 1056.58 361.342C1097.58 361.044 1136.37 352.697 1185.79 348.093C1200.27 346.738 1212.62 346.773 1223.27 347.446C1262.73 350.017 1274.55 348.295 1268.27 364.094C1262.17 379.657 1254.5 380.739 1264.82 394.582C1272.27 404.621 1307.52 398.995 1295.13 412.915C1271.6 439.473 1261.03 449.822 1244.46 463.778" stroke="white" stroke-width="0.635" stroke-miterlimit="10"/>
<path d="M557.318 270.541C557.318 270.541 598.818 259.21 628.677 256.295C647.705 254.431 648.926 257.104 670.028 257.2C694.862 257.314 718.199 255.458 748.713 255.925C752.004 256 755.123 256.218 758.108 256.391C811.74 259.984 779.507 275.505 830.392 273.849C879.24 272.327 915.507 267.425 947.427 273.399C953.949 274.62 958.671 276.247 960.828 278.531C970.683 288.755 964.848 301.429 951.309 314.581C948.868 316.861 946.221 319.472 942.538 322.242C918.602 340.25 895.404 354.337 909.398 364.712C921.365 373.639 945.721 371.717 980.136 369.781C1004.67 368.413 1028.16 365.019 1054.33 364.875C1056.06 364.841 1057.62 364.949 1059.35 364.915C1100.97 364.42 1139.75 356.072 1188.72 351.617C1203.2 350.262 1215.69 350.341 1226.32 351.108C1265.3 353.92 1276.64 352.44 1270.21 368.289C1263.65 384 1255.96 385.175 1266.73 398.963C1274.73 409.085 1310.46 403.217 1298.21 417.18C1275.17 443.403 1264.87 453.84 1248.19 467.658" stroke="white" stroke-width="0.635" stroke-miterlimit="10"/>
<path d="M562.707 273.969C562.707 273.969 603.766 262.693 633.659 259.591C652.57 257.59 654.555 260.016 675.828 259.968C700.697 259.896 724.323 258.034 754.378 258.65C757.668 258.725 760.788 258.942 763.755 259.209C817.181 263.132 784.319 278.944 834.115 277.728C881.757 276.509 918.294 271.695 949.808 277.538C956.331 278.758 960.917 280.342 963.073 282.625C972.641 292.855 967.418 305.331 954.202 318.29C951.914 320.522 949.267 323.132 945.737 325.853C922.583 343.52 899.691 357.507 913.685 367.883C925.806 376.76 950.144 374.931 984.27 373.002C1008.67 371.59 1032.14 368.289 1058.49 368.002C1060.22 367.967 1061.93 368.027 1063.37 367.998C1105.31 367.31 1144.38 358.957 1192.76 354.607C1207.22 353.344 1219.57 353.38 1230.33 354.191C1269.13 357.239 1279.99 356.001 1273.1 371.998C1266.09 387.858 1258.38 389.127 1269.6 402.766C1277.88 412.976 1314.38 406.86 1302.24 420.96C1279.98 446.843 1269.65 457.466 1252.86 471.053" stroke="white" stroke-width="0.635" stroke-miterlimit="10"/>
<path d="M569.437 277.139C569.437 277.139 609.901 265.968 639.983 262.63C658.911 260.535 661.662 262.714 682.969 262.479C708.009 262.264 731.923 260.397 761.384 261.117C764.674 261.192 767.641 261.459 770.761 261.677C824.117 265.972 790.625 282.076 839.35 281.207C885.768 280.384 922.747 275.514 953.836 281.32C960.224 282.496 964.946 284.124 966.967 286.363C976.398 296.549 971.346 308.882 958.742 321.643C956.454 323.875 953.96 326.436 950.431 329.157C927.924 346.439 905.473 360.371 919.62 370.697C931.741 379.574 956.061 377.838 990.341 375.859C1014.59 374.497 1038.06 371.196 1064.57 370.766C1066.3 370.732 1067.88 370.747 1069.61 370.713C1112.01 369.876 1151.23 361.474 1199.01 357.228C1213.48 355.966 1225.96 356.045 1236.42 356.955C1274.89 360.196 1285.41 359.244 1278.06 375.39C1270.59 391.398 1263.02 392.711 1274.53 406.344C1283.37 416.636 1320.48 410.321 1308.47 424.466C1286.71 450.013 1276.65 460.724 1259.75 474.174" stroke="white" stroke-width="0.635" stroke-miterlimit="10"/>
<path d="M577.679 279.907C577.679 279.907 617.549 268.84 647.819 265.266C666.764 263.078 670.298 264.915 691.47 264.637C716.68 264.279 740.747 262.362 769.749 263.231C773.039 263.306 776.142 263.617 779.108 263.884C832.105 268.559 798.137 284.904 845.927 284.426C891.274 283.95 928.388 279.124 959.071 284.798C965.459 285.974 970.045 287.558 972.066 289.797C981.362 299.94 976.769 312.124 964.489 324.693C962.354 326.874 959.86 329.435 956.483 332.107C934.759 349.048 912.462 362.93 926.897 373.251C939.171 382.079 963.185 380.442 997.6 378.507C1021.71 377.1 1045.32 373.844 1071.85 373.32C1073.58 373.286 1075.16 373.301 1076.89 373.267C1119.76 372.188 1159.12 363.829 1206.31 359.689C1220.77 358.426 1233.1 358.555 1243.83 359.553C1281.96 363.079 1292.16 362.32 1284.37 378.521C1276.59 394.628 1268.71 396.04 1280.67 409.619C1289.91 420.041 1327.65 413.436 1315.63 427.673C1294.36 452.885 1284.7 463.727 1267.39 477.046" stroke="white" stroke-width="0.635" stroke-miterlimit="10"/>
<path d="M587.553 282.41C587.553 282.41 626.693 271.404 657.422 267.681C676.25 265.356 680.683 266.989 701.891 266.524C727.272 266.023 751.339 264.106 780.017 265.168C783.443 265.287 786.257 265.603 789.224 265.87C842.015 270.875 807.553 287.556 853.983 287.43C897.97 287.306 935.661 282.469 965.785 288.061C972.037 289.193 976.624 290.777 978.644 293.016C987.67 303.071 983.518 315.2 971.714 327.527C969.579 329.709 967.239 332.22 963.727 334.848C942.497 351.453 920.929 365.275 935.382 375.502C947.808 384.28 971.652 382.786 1006.07 380.851C1030.03 379.494 1053.63 376.238 1080.33 375.571C1082.07 375.537 1083.64 375.552 1085.37 375.518C1128.57 374.247 1168.22 365.883 1214.95 361.89C1229.41 360.628 1241.87 360.801 1252.45 361.848C1290.26 365.567 1299.98 365.049 1291.86 381.443C1283.63 397.699 1275.73 399.204 1288.28 412.678C1297.95 423.139 1336.45 416.285 1324.55 430.66C1303.93 455.487 1294.23 466.516 1276.96 479.648" stroke="white" stroke-width="0.635" stroke-miterlimit="10"/>
<path d="M599.244 284.411C599.244 284.411 637.79 273.51 668.707 269.551C687.552 267.133 692.615 268.475 713.841 267.916C739.256 267.228 763.612 265.306 791.831 266.516C795.104 266.684 798.071 266.951 800.885 267.268C853.606 272.646 818.378 289.575 863.873 289.84C906.789 290.062 944.616 285.269 974.486 290.68C980.738 291.812 985.19 293.352 987.075 295.548C995.965 305.559 991.984 317.545 980.657 329.629C978.675 331.762 976.199 334.229 972.975 336.851C952.528 353.116 931.266 366.838 945.854 377.109C958.298 385.794 982.107 384.487 1016.39 382.508C1040.21 381.107 1063.8 377.944 1090.67 377.134C1092.4 377.1 1094.13 377.066 1095.86 377.032C1139.67 375.563 1179.32 367.198 1225.45 363.311C1240.05 362.092 1252.36 362.314 1262.94 363.361C1300.56 367.317 1309.81 367.041 1301.1 383.54C1292.4 399.944 1284.49 401.543 1297.34 414.917C1307.57 425.46 1346.68 418.409 1334.76 432.877C1314.63 457.369 1305.35 468.529 1287.82 481.48" stroke="white" stroke-width="0.635" stroke-miterlimit="10"/>
<path d="M612.738 286.006C612.738 286.006 650.842 275.16 681.794 271.014C700.657 268.502 706.639 269.547 727.746 268.851C753.332 268.021 777.841 266.048 805.601 267.408C808.874 267.576 811.823 267.936 814.79 268.203C867.305 273.911 831.431 291.224 876.007 291.786C917.853 292.356 955.968 287.557 985.279 292.886C991.396 293.974 995.847 295.514 997.732 297.71C1006.49 307.677 1002.96 319.514 991.961 331.407C989.979 333.539 987.656 335.957 984.432 338.579C964.632 354.459 943.812 368.126 958.553 378.347C970.997 387.032 994.788 385.818 1029.22 383.79C1052.89 382.439 1076.49 379.182 1103.52 378.323C1105.25 378.289 1106.98 378.255 1108.58 378.177C1152.71 376.515 1192.65 368.145 1238.19 364.362C1252.78 363.144 1265.1 363.366 1275.64 364.6C1313.07 368.791 1321.84 368.758 1312.67 385.405C1303.67 401.908 1295.59 403.65 1308.9 416.876C1319.4 427.506 1359.28 420.207 1347.63 434.763C1327.99 458.919 1318.82 470.217 1301.33 482.982" stroke="white" stroke-width="0.635" stroke-miterlimit="10"/>
<path d="M630.151 287.383C630.151 287.383 667.66 276.642 698.801 272.26C717.682 269.655 724.292 270.408 745.57 269.569C771.327 268.596 795.989 266.574 823.29 268.082C826.563 268.25 829.512 268.61 832.326 268.927C884.771 275.008 848.131 292.569 891.619 293.572C932.105 294.493 970.644 289.733 999.549 294.93C1005.67 296.018 1009.98 297.515 1011.87 299.71C1020.49 309.633 1017.13 321.328 1006.74 333.022C1004.91 335.105 1002.59 337.523 999.367 340.145C980.196 355.733 959.835 369.252 974.712 379.517C987.309 388.152 1011.08 387.032 1045.36 385.053C1068.75 383.707 1092.48 380.495 1119.68 379.493C1121.41 379.458 1123.14 379.424 1124.74 379.346C1169.35 377.442 1209.42 369.116 1254.36 365.438C1268.96 364.22 1281.26 364.535 1291.8 365.769C1328.75 370.203 1337.2 370.362 1327.86 387.152C1318.4 403.804 1310.45 405.589 1324.05 418.809C1335.11 429.522 1375.46 421.981 1363.8 436.63C1344.81 460.402 1335.9 471.88 1317.86 484.469" stroke="white" stroke-width="0.635" stroke-miterlimit="10"/>
<path d="M649.561 288.813C649.561 288.813 686.476 278.177 717.805 273.559C736.568 270.816 744.079 271.366 765.239 270.39C791.031 269.23 815.828 267.252 842.823 268.858C846.096 269.026 848.892 269.436 851.841 269.797C904.08 276.208 866.947 294.104 909.228 295.409C948.643 296.678 987.471 291.911 1015.82 297.027C1021.93 298.115 1026.11 299.568 1028 301.763C1036.48 311.643 1033.44 323.238 1023.52 334.69C1021.69 336.773 1019.52 339.141 1016.45 341.714C997.929 356.917 977.856 370.43 993.038 380.596C1005.79 389.182 1029.39 388.205 1063.67 386.226C1087.06 384.88 1110.64 381.717 1138.01 380.572C1139.74 380.538 1141.47 380.504 1143.22 380.376C1188.15 378.28 1228.51 369.948 1272.84 366.468C1287.42 365.343 1299.87 365.609 1310.4 366.936C1347.16 371.606 1355.13 372.007 1345.2 388.902C1335.28 405.703 1327.18 407.537 1341.22 420.702C1352.84 431.497 1393.8 423.758 1382.27 438.451C1363.91 461.931 1355.14 473.453 1336.99 485.905" stroke="white" stroke-width="0.635" stroke-miterlimit="10"/>
<path d="M669.86 290.134C669.86 290.134 706.181 279.602 737.833 274.791C756.614 271.956 764.908 272.164 786.085 271.095C812.048 269.792 836.998 267.764 863.381 269.569C866.501 269.787 869.586 270.191 872.247 270.557C924.262 277.391 886.517 295.486 927.863 297.181C966.071 298.753 1005.17 294.074 1033.24 299.101C1039.23 300.146 1043.54 301.642 1045.16 303.75C1053.5 313.586 1050.92 325.033 1041.33 336.292C1039.65 338.326 1037.48 340.694 1034.41 343.266C1016.67 358.129 996.902 371.543 1012.22 381.753C1025.12 390.289 1048.56 389.454 1082.83 387.475C1105.93 386.136 1129.8 382.967 1157.19 381.728C1158.92 381.694 1160.67 381.567 1162.4 381.533C1207.94 379.238 1248.31 370.906 1292.04 367.531C1306.62 366.406 1318.92 366.722 1329.43 368.142C1365.87 373.005 1373.49 373.691 1363.1 390.734C1352.73 407.684 1344.6 409.612 1359.24 422.673C1371.28 433.505 1412.86 425.568 1401.45 440.398C1383.58 463.543 1375.06 475.246 1356.81 487.468" stroke="white" stroke-width="0.635" stroke-miterlimit="10"/>
<path d="M690.733 291.443C690.733 291.443 726.324 280.973 758.299 275.97C777.251 272.991 786.156 273.001 807.216 271.795C833.35 270.348 858.588 268.315 884.377 270.225C887.632 270.486 890.581 270.847 893.377 271.257C945.187 278.42 906.948 296.851 947.07 298.942C984.054 300.91 1023.44 296.226 1051.11 301.122C1057.09 302.166 1061.27 303.619 1062.89 305.727C1071.1 315.518 1068.68 326.822 1059.7 337.884C1058.03 339.917 1056.01 342.236 1053.09 344.759C1035.85 359.286 1016.81 372.639 1032.14 382.755C1045.05 391.292 1068.46 390.551 1102.61 388.528C1125.57 387.144 1149.42 384.069 1176.98 382.687C1178.73 382.56 1180.46 382.526 1182.19 382.492C1228.21 379.955 1268.71 371.667 1311.85 368.397C1326.43 367.272 1338.86 367.631 1349.22 369.101C1385.47 374.2 1392.62 375.128 1381.77 392.32C1371.08 409.369 1362.95 411.39 1377.74 424.401C1390.18 435.365 1432.39 427.136 1420.96 442.06C1403.59 464.869 1395.34 476.661 1376.97 488.745" stroke="white" stroke-width="0.635" stroke-miterlimit="10"/>
<path d="M711.777 292.609C711.777 292.609 746.774 282.244 778.784 277.053C797.753 273.981 807.288 273.7 828.519 272.351C854.687 270.718 880.061 268.729 905.679 270.781C908.935 271.042 911.731 271.452 914.527 271.862C966.131 279.356 927.262 298.077 966.448 300.56C1002.23 302.83 1042.17 298.228 1069.15 302.998C1074.99 303.999 1079.17 305.451 1080.79 307.559C1088.71 317.357 1086.75 328.512 1078.25 339.332C1076.73 341.315 1074.71 343.634 1071.79 346.157C1055.33 360.343 1036.45 373.647 1052.07 383.757C1064.99 392.2 1088.37 391.646 1122.67 389.573C1145.48 388.239 1169.33 385.164 1197.06 383.64C1198.81 383.512 1200.54 383.478 1202.28 383.35C1248.63 380.622 1289.41 372.328 1331.96 369.162C1346.68 368.081 1358.82 368.446 1369.45 370.004C1405.37 375.295 1412.05 376.466 1400.89 393.756C1389.75 410.954 1381.59 413.068 1396.69 425.98C1409.7 437.026 1452.54 428.506 1441.22 443.567C1424.5 465.991 1416.35 478.013 1397.73 489.916" stroke="white" stroke-width="0.635" stroke-miterlimit="10"/>
<path d="M733.107 293.769C733.107 293.769 767.663 283.459 799.709 278.082C818.559 274.873 829.148 274.338 850.108 272.901C876.6 271.076 901.974 269.086 927.133 271.288C930.388 271.549 933.32 272.003 935.828 272.418C987.208 280.335 947.863 299.298 985.978 302.127C1020.68 304.745 1060.77 300.186 1087.49 304.775C1093.33 305.776 1097.38 307.185 1098.99 309.293C1106.78 319.046 1105.28 330.053 1097.1 340.68C1095.58 342.664 1093.72 344.933 1090.95 347.406C1075.14 361.208 1056.69 374.456 1072.32 384.567C1085.39 392.96 1108.6 392.549 1142.9 390.476C1165.57 389.098 1189.56 386.067 1217.3 384.449C1219.05 384.322 1220.78 384.287 1222.53 384.16C1269.35 381.189 1310.27 372.939 1352.36 369.922C1367.08 368.841 1379.36 369.25 1389.83 370.857C1425.57 376.385 1431.77 377.797 1420.15 395.237C1408.55 412.583 1400.38 414.79 1416.07 427.598C1429.5 438.682 1472.95 429.963 1461.75 445.162C1445.52 467.251 1437.64 479.36 1418.9 491.126" stroke="white" stroke-width="0.635" stroke-miterlimit="10"/>
<path d="M754.748 294.831C754.748 294.831 788.709 284.625 820.943 279.012C839.811 275.709 851.03 274.883 872.16 273.303C898.687 271.291 924.196 269.346 949.05 271.646C952.152 271.957 955.083 272.411 957.88 272.821C1009.05 281.067 969.079 300.322 1005.97 303.547C1039.47 306.468 1079.98 301.947 1106.14 306.454C1111.85 307.411 1115.89 308.82 1117.51 310.928C1125.16 320.637 1123.83 331.501 1116.27 341.93C1114.9 343.864 1113.03 346.134 1110.13 348.563C1094.95 362.073 1076.96 375.173 1092.87 385.278C1106.1 393.622 1129.29 393.303 1163.44 391.281C1185.96 389.952 1209.95 386.921 1237.86 385.16C1239.61 385.033 1241.34 384.998 1243.09 384.871C1290.23 381.708 1331.58 373.496 1372.94 370.54C1387.65 369.459 1400.07 369.911 1410.23 371.618C1445.5 377.387 1451.37 378.992 1439.43 396.624C1427.37 414.119 1419.2 416.327 1435.18 429.128C1449.17 440.294 1493.23 431.378 1482.17 446.62C1466.44 468.373 1458.96 480.614 1439.97 492.199" stroke="white" stroke-width="0.635" stroke-miterlimit="10"/>
<path d="M776.115 295.805C776.115 295.805 809.481 285.704 842.039 279.898C860.925 276.502 872.908 275.428 894.074 273.662C920.772 271.507 946.434 269.512 970.675 272.01C973.777 272.321 976.709 272.775 979.352 273.234C1030.32 281.81 989.87 301.307 1025.67 304.973C1057.95 308.289 1098.74 303.763 1124.5 308.138C1130.21 309.095 1134.12 310.46 1135.6 312.524C1143.11 322.19 1142.25 332.905 1134.87 343.098C1133.5 345.032 1131.65 347.208 1128.89 349.682C1114.35 362.806 1096.8 375.851 1112.72 385.956C1125.94 394.3 1149.12 394.075 1183.26 392.052C1205.64 390.68 1229.48 387.698 1257.7 385.838C1259.45 385.711 1261.34 385.627 1263.08 385.5C1310.71 382.094 1352.19 373.926 1392.95 371.075C1407.65 370.087 1419.93 370.496 1430.36 372.29C1465.44 378.296 1470.84 380.143 1458.46 397.83C1445.94 415.473 1437.75 417.774 1454.17 430.521C1468.71 441.769 1513.25 432.61 1502.18 447.946C1486.94 469.364 1479.58 481.742 1460.62 493.14" stroke="white" stroke-width="0.635" stroke-miterlimit="10"/>
<path d="M797.059 296.74C797.059 296.74 829.832 286.744 862.577 280.702C881.481 277.212 894.247 275.797 915.277 273.987C942.145 271.689 967.808 269.694 991.743 272.291C994.98 272.646 997.759 273.149 1000.4 273.609C1051.15 282.608 1010.22 302.347 1044.95 306.359C1076.02 309.979 1117.24 305.49 1142.57 309.828C1148.15 310.741 1152.05 312.106 1153.53 314.17C1160.92 323.792 1160.22 334.364 1153.45 344.359C1152.23 346.243 1150.39 348.419 1147.78 350.843C1133.88 363.583 1116.63 376.622 1132.98 386.672C1146.36 394.966 1169.37 394.884 1203.53 392.768C1225.76 391.445 1249.75 388.414 1277.99 386.461C1279.74 386.333 1281.62 386.249 1283.37 386.122C1331.32 382.524 1373.08 374.351 1413.25 371.604C1427.95 370.616 1440.37 371.069 1450.65 372.913C1485.54 379.155 1490.46 381.244 1477.62 399.079C1464.79 416.822 1456.43 419.266 1473.31 431.863C1488.28 443.15 1533.43 433.793 1522.63 449.216C1507.88 470.299 1500.93 482.809 1481.57 494.075" stroke="white" stroke-width="0.635" stroke-miterlimit="10"/>
<path d="M817.441 297.593C817.441 297.593 849.772 287.652 882.553 281.424C901.474 277.841 914.869 276.134 936.07 274.181C962.974 271.696 988.924 269.696 1012.4 272.442C1015.64 272.796 1018.42 273.3 1020.91 273.809C1071.45 283.137 1029.89 303.168 1063.53 307.62C1093.53 311.586 1134.88 307.142 1159.81 311.348C1165.38 312.261 1169.29 313.626 1170.79 315.596C1178.04 325.175 1177.65 335.648 1171.36 345.401C1170.29 347.236 1168.44 349.412 1165.83 351.835C1152.57 364.284 1135.78 377.174 1152.13 387.224C1165.66 395.469 1188.49 395.53 1222.66 393.413C1244.75 392.047 1268.72 389.109 1297.13 387.013C1298.88 386.885 1300.63 386.758 1302.38 386.63C1350.8 382.791 1392.7 374.661 1432.42 372.063C1447.11 371.075 1459.51 371.621 1469.79 373.465C1504.36 379.899 1508.8 382.23 1495.64 400.258C1482.36 418.149 1473.99 420.593 1491.3 433.229C1506.83 444.598 1552.46 434.999 1541.77 450.559C1527.52 471.307 1520.83 483.904 1501.35 495.034" stroke="white" stroke-width="0.635" stroke-miterlimit="10"/>
<path d="M837.556 298.359C837.556 298.359 869.427 288.567 902.261 282.058C921.065 278.338 935.361 276.428 956.443 274.337C983.518 271.71 1009.6 269.753 1032.77 272.598C1035.86 273.002 1038.64 273.506 1041.42 274.009C1091.6 283.717 1049.56 303.989 1082.27 308.832C1111.06 313.101 1152.84 308.695 1177.21 312.819C1182.78 313.732 1186.55 315.053 1188.05 317.024C1195.16 326.558 1195.23 336.883 1189.26 346.443C1188.2 348.278 1186.51 350.405 1184.05 352.779C1171.43 364.842 1155.21 377.721 1171.72 387.721C1185.12 395.922 1208.07 396.121 1242.23 394.004C1264.17 392.687 1288.3 389.7 1316.73 387.51C1318.47 387.383 1320.22 387.255 1322.12 387.078C1371 383.09 1413.06 374.911 1452.18 372.418C1467.01 371.474 1479.27 371.976 1489.52 374.006C1523.9 380.677 1527.71 383.299 1514.11 401.383C1500.36 419.422 1491.98 421.96 1509.59 434.496C1525.55 445.903 1571.79 436.106 1561.23 451.711C1547.63 472.073 1541.05 484.901 1521.47 495.8" stroke="white" stroke-width="0.635" stroke-miterlimit="10"/>
<path d="M856.537 299.055C856.537 299.055 887.815 289.368 920.837 282.622C939.81 278.759 954.736 276.558 975.836 274.374C1002.95 271.559 1029.17 269.646 1051.88 272.64C1054.96 273.044 1057.88 273.592 1060.37 274.101C1110.48 284.182 1067.97 304.696 1099.32 309.892C1126.9 314.464 1168.95 310.145 1192.91 314.138C1198.35 315.007 1202.12 316.328 1203.48 318.255C1210.46 327.745 1210.7 337.927 1205.34 347.289C1204.3 349.031 1202.74 351.201 1200.28 353.575C1188.16 365.303 1172.53 378.077 1189.04 388.078C1202.59 396.229 1225.37 396.57 1259.53 394.454C1281.34 393.093 1305.45 390.199 1334.05 387.867C1335.79 387.739 1337.7 387.562 1339.44 387.435C1388.8 383.204 1430.99 375.069 1469.52 372.681C1484.35 371.737 1496.75 372.283 1506.84 374.363C1541.03 381.269 1544.37 384.134 1530.46 402.316C1516.41 420.455 1508.01 423.086 1525.93 435.523C1542.44 447.012 1589.16 436.973 1578.72 452.715C1565.61 472.742 1559.3 485.658 1539.6 496.419" stroke="white" stroke-width="0.635" stroke-miterlimit="10"/>
<path d="M874.666 299.673C874.666 299.673 905.501 290.041 938.694 283.153C957.686 279.197 973.241 276.703 994.512 274.376C1021.79 271.419 1048.17 269.457 1070.42 272.599C1073.5 273.003 1076.26 273.6 1078.89 274.153C1128.64 284.613 1085.65 305.37 1115.91 311.005C1142.43 315.924 1184.76 311.6 1208.32 315.461C1213.76 316.33 1217.4 317.607 1218.76 319.534C1225.6 328.981 1226.3 339.014 1221.26 348.183C1220.22 349.925 1218.81 352.046 1216.51 354.37C1205.17 365.758 1189.7 378.482 1206.65 388.427C1220.35 396.529 1242.96 397.013 1277.27 394.847C1298.93 393.536 1323.03 390.642 1351.8 388.167C1353.55 388.039 1355.45 387.862 1357.2 387.735C1406.88 383.312 1449.36 375.171 1487.14 372.937C1501.95 372.086 1514.35 372.632 1524.58 374.756C1558.44 381.855 1561.44 385.005 1547.07 403.336C1532.57 421.624 1524.01 424.304 1542.51 436.73C1559.58 448.301 1606.62 438.07 1596.61 453.849C1583.99 473.541 1577.93 486.638 1557.98 497.218" stroke="white" stroke-width="0.635" stroke-miterlimit="10"/>
<path d="M891.639 300.315C891.639 300.315 921.881 290.787 955.262 283.663C974.271 279.613 990.591 276.872 1011.74 274.408C1039.06 271.264 1065.57 269.346 1087.52 272.587C1090.74 273.035 1093.36 273.588 1095.83 274.19C1145.38 284.98 1101.76 306.028 1131.09 312.054C1156.4 317.276 1199 313.04 1222.15 316.769C1227.3 317.644 1231.09 318.872 1232.45 320.798C1239.01 330.251 1240.16 340.135 1235.61 349.063C1234.71 350.755 1233.31 352.876 1231 355.201C1220.31 366.203 1205.28 378.872 1222.23 388.817C1236.09 396.87 1258.68 397.447 1292.7 395.287C1314.22 393.932 1338.31 391.131 1367.25 388.513C1369.15 388.336 1370.9 388.208 1372.8 388.031C1422.83 383.323 1465.58 375.269 1502.76 373.14C1517.57 372.289 1529.97 372.835 1540.18 375.052C1573.86 382.388 1576.25 385.736 1561.42 404.216C1546.45 422.652 1538.03 425.376 1556.68 437.753C1574.33 449.312 1621.83 438.932 1611.8 454.805C1599.68 474.162 1593.89 487.346 1573.69 497.746" stroke="white" stroke-width="0.635" stroke-miterlimit="10"/>
<path d="M907.21 300.799C907.21 300.799 936.857 291.376 970.426 284.015C989.453 279.872 1006.56 276.79 1027.73 274.233C1055.21 270.946 1081.72 269.027 1103.36 272.368C1106.43 272.865 1109.05 273.418 1111.68 273.971C1160.87 285.14 1117.06 306.424 1145.16 312.847C1169.4 318.415 1212.3 314.173 1235.02 317.864C1240.17 318.739 1243.83 319.923 1245.19 321.85C1251.6 331.258 1253.08 340.951 1248.99 349.729C1248.09 351.422 1246.84 353.493 1244.54 355.818C1234.34 366.485 1219.9 379.049 1237.14 388.988C1251 397.041 1273.57 397.712 1307.6 395.551C1328.83 394.202 1353.21 391.395 1382.01 388.734C1383.91 388.557 1385.66 388.429 1387.43 388.208C1437.77 383.307 1480.79 375.341 1517.53 373.267C1532.35 372.417 1544.73 373.056 1554.79 375.323C1588.28 382.895 1590.19 386.485 1575.05 405.064C1559.62 423.648 1551.06 426.422 1570.43 438.738C1588.64 450.379 1636.62 439.757 1626.86 455.718C1615.23 474.739 1609.85 488.055 1589.39 498.273" stroke="white" stroke-width="0.635" stroke-miterlimit="10"/>
<path d="M921.353 301.217C921.353 301.217 950.559 291.849 984.163 284.302C1003.21 280.065 1020.94 276.692 1042.13 274.041C1069.65 270.568 1096.45 268.643 1117.63 272.132C1120.7 272.63 1123.46 273.227 1125.93 273.829C1175.05 285.372 1130.48 306.903 1157.49 313.766C1180.52 319.637 1223.68 315.483 1246 319.042C1251.02 319.874 1254.67 321.057 1256.03 322.984C1262.18 332.305 1264.1 341.942 1260.48 350.479C1259.74 352.122 1258.36 354.149 1256.2 356.424C1246.65 366.706 1232.66 379.215 1249.9 389.155C1263.9 397.158 1286.31 397.971 1320.33 395.811C1341.41 394.511 1365.79 391.705 1394.77 388.9C1396.67 388.723 1398.41 388.595 1400.18 388.374C1451 383.232 1494.16 375.31 1530.31 373.34C1545.26 372.534 1557.64 373.173 1567.68 375.533C1600.84 383.297 1602.41 387.174 1586.82 405.901C1571.08 424.584 1562.5 427.452 1582.03 439.718C1600.8 451.441 1649.25 440.577 1639.61 456.675C1628.47 475.361 1623.21 488.814 1602.79 498.846" stroke="white" stroke-width="0.635" stroke-miterlimit="10"/>
<path d="M933.788 301.576C933.788 301.576 962.399 292.313 996.191 284.53C1015.27 280.106 1033.75 276.579 1054.97 273.741C1082.53 270.081 1109.46 268.2 1130.32 271.882C1133.39 272.379 1136 273.026 1138.47 273.628C1187.23 285.55 1142.47 307.318 1168.12 314.533C1190.08 320.751 1233.54 316.591 1255.29 320.068C1260.31 320.9 1263.97 322.083 1265.06 323.922C1271.07 333.2 1273.29 342.737 1270.15 351.032C1269.41 352.675 1268.18 354.653 1266.02 356.928C1257.1 366.919 1243.41 379.329 1261.09 389.213C1275.12 397.122 1297.49 398.123 1331.67 395.913C1352.61 394.57 1376.99 391.763 1406.12 388.909C1408.02 388.732 1409.92 388.554 1411.68 388.334C1462.83 382.998 1506.28 375.071 1541.83 373.206C1556.62 372.449 1569.16 373.039 1579.18 375.492C1612.16 383.493 1613.25 387.611 1597.06 406.443C1580.87 425.275 1572.13 428.192 1592.39 440.397C1611.58 452.158 1660.65 441.096 1651.28 457.282C1640.64 475.632 1635.78 489.217 1614.95 499.117" stroke="white" stroke-width="0.635" stroke-miterlimit="10"/>
<path d="M944.352 301.926C944.352 301.926 972.368 292.768 1006.48 284.792C1025.58 280.276 1044.69 276.456 1065.93 273.525C1093.66 269.722 1120.59 267.842 1141.14 271.622C1144.06 272.169 1146.82 272.766 1149.43 273.412C1197.83 285.713 1152.59 307.723 1177.31 315.329C1198.35 321.844 1241.94 317.728 1263.14 321.123C1268.02 321.911 1271.67 323.095 1272.77 324.934C1278.64 334.167 1281.33 343.556 1278.37 351.615C1277.78 353.208 1276.4 355.235 1274.55 357.411C1266.28 367.017 1253.17 379.416 1270.71 389.256C1284.89 397.116 1307.09 398.26 1341.13 396.006C1361.92 394.712 1386.3 391.905 1415.6 388.908C1417.5 388.731 1419.26 388.51 1421.16 388.333C1472.79 382.756 1516.37 374.872 1551.33 373.112C1566.26 372.399 1578.64 373.038 1588.66 375.492C1621.45 383.728 1621.93 388.045 1605.42 407.069C1588.77 426.05 1580.16 429.011 1600.58 441.166C1620.48 452.96 1669.87 441.706 1660.48 457.985C1650.34 476 1645.6 489.722 1624.8 499.435" stroke="white" stroke-width="0.635" stroke-miterlimit="10"/>
<path d="M952.937 302.129C952.937 302.129 980.512 293.026 1014.66 284.864C1033.78 280.254 1053.67 276.093 1074.93 273.069C1102.69 269.079 1129.76 267.242 1150 271.122C1153.05 271.713 1155.66 272.359 1158.14 272.962C1206.33 285.592 1160.75 307.888 1184.09 315.94C1203.93 322.758 1247.79 318.729 1268.73 321.944C1273.61 322.731 1277.14 323.871 1278.23 325.71C1283.81 334.949 1286.82 344.146 1284.48 352.006C1283.89 353.599 1282.66 355.577 1280.81 357.753C1273.03 367.024 1260.36 379.367 1278.35 389.152C1292.53 397.012 1314.57 398.205 1348.75 395.996C1369.4 394.658 1393.76 391.944 1423.23 388.804C1425.14 388.627 1426.9 388.406 1428.8 388.229C1480.75 382.459 1524.62 374.57 1559.12 372.959C1574.05 372.245 1586.56 372.928 1596.42 375.525C1629.02 383.998 1629.02 388.556 1612.2 407.68C1595.25 426.76 1586.49 429.77 1607.19 441.92C1627.52 453.752 1677.37 442.349 1668.4 458.666C1658.75 476.346 1654.28 490.155 1633.37 499.731" stroke="white" stroke-width="0.635" stroke-miterlimit="10"/>
<path d="M959.363 302.328C959.363 302.328 986.479 293.374 1020.53 284.98C1039.66 280.277 1060.32 275.869 1081.61 272.658C1109.55 268.525 1136.48 266.644 1156.55 270.667C1159.6 271.258 1162.21 271.904 1164.67 272.6C1212.5 285.61 1166.74 308.142 1188.85 316.59C1207.62 323.754 1251.77 319.72 1272.15 322.853C1276.9 323.596 1280.42 324.736 1281.51 326.575C1286.96 335.77 1290.43 344.819 1288.41 352.487C1287.98 354.03 1286.74 356.008 1285.05 358.135C1277.92 367.02 1265.69 379.308 1283.67 389.094C1298 396.904 1320.03 398.19 1354.06 396.03C1374.56 394.742 1399.07 391.979 1428.56 388.745C1430.46 388.568 1432.23 388.347 1434.14 388.077C1486.57 382.065 1530.42 374.269 1564.48 372.713C1579.41 372 1591.77 372.733 1601.76 375.373C1634.04 384.038 1633.7 388.882 1616.28 408.111C1598.87 427.339 1590.1 430.443 1611.39 442.488C1632.28 454.402 1682.47 442.713 1673.76 459.211C1664.46 476.512 1660.54 490.497 1639.37 499.892" stroke="white" stroke-width="0.635" stroke-miterlimit="10"/>
<path d="M963.519 302.385C963.519 302.385 990.041 293.535 1024.28 284.906C1043.58 280.059 1064.72 275.409 1086.03 272.105C1114 267.785 1141.06 265.949 1160.83 270.07C1163.73 270.711 1166.34 271.357 1168.79 272.053C1216.56 285.436 1170.03 308.216 1191.21 317.054C1208.9 324.566 1253.19 320.575 1273.3 323.62C1278.05 324.364 1281.43 325.46 1282.39 327.255C1287.7 336.406 1291.48 345.355 1289.94 352.782C1289.5 354.325 1288.28 356.21 1286.73 358.38C1280.09 366.93 1268.45 379.114 1286.73 388.893C1301.21 396.654 1323.07 398.083 1357.25 395.874C1377.61 394.541 1402.11 391.872 1431.77 388.495C1433.53 388.274 1435.59 388.048 1437.35 387.827C1490.1 381.623 1534.38 373.865 1567.7 372.37C1582.62 371.75 1595.13 372.433 1604.97 375.123C1637.06 384.025 1636.24 389.111 1618.37 408.488C1600.5 427.865 1591.72 430.968 1613.31 443.008C1634.77 454.91 1685.42 443.073 1676.84 459.615C1668.04 476.58 1664.23 490.702 1642.95 499.96" stroke="white" stroke-width="0.635" stroke-miterlimit="10"/>
<path d="M964.941 302.45C964.941 302.45 1102.4 256.106 1162.51 269.525C1222.78 282.894 1170.1 307.842 1190.96 317.57C1211.7 327.255 1275.48 318.879 1280.67 327.986C1285.85 337.094 1289.94 345.851 1288.86 353.128C1287.78 360.406 1263.79 376.415 1287.05 388.7C1310.02 400.992 1351.87 397.7 1431.95 388.259C1512.03 378.817 1573.24 365.841 1605.14 374.98C1637.04 384.118 1635.61 389.402 1617.57 408.922C1599.23 428.447 1590.44 431.644 1612.47 443.629C1634.49 455.613 1685.46 443.583 1677.16 460.213C1668.85 476.843 1665.45 491.097 1643.91 500.173" stroke="white" stroke-width="0.635" stroke-miterlimit="10"/>
</g>
</svg>
